<?xml version="1.0" encoding="UTF-8"?>
<svg xmlns="http://www.w3.org/2000/svg" xmlns:xlink="http://www.w3.org/1999/xlink" width="120px" height="120px" viewBox="0 0 120 120" version="1.1">
<g id="surface1">
<path style=" stroke:none;fill-rule:nonzero;fill:rgb(66.274512%,67.450982%,67.843139%);fill-opacity:1;" d="M 68.132812 29.828125 C 68.480469 30.085938 68.480469 30.085938 68.84375 30.050781 C 68.84375 30.183594 68.84375 30.320312 68.84375 30.457031 C 69.003906 30.457031 69.160156 30.457031 69.324219 30.457031 C 69.511719 30.753906 69.511719 30.753906 69.6875 31.140625 C 69.921875 31.652344 70.074219 31.914062 70.398438 32.285156 C 70.398438 32.484375 70.398438 32.6875 70.398438 32.894531 C 70.476562 32.894531 70.554688 32.894531 70.636719 32.894531 C 70.679688 33.164062 70.71875 33.433594 70.757812 33.707031 C 70.789062 33.917969 70.789062 33.917969 70.820312 34.132812 C 70.894531 34.921875 70.882812 35.6875 70.875 36.484375 C 70.835938 37.5625 70.835938 37.5625 70.996094 38.578125 C 70.921875 38.921875 70.839844 39.257812 70.757812 39.59375 C 70.714844 39.863281 70.671875 40.132812 70.636719 40.40625 C 70.558594 40.40625 70.480469 40.40625 70.398438 40.40625 C 70.40625 40.628906 70.414062 40.851562 70.421875 41.078125 C 70.394531 41.9375 70.371094 41.890625 70.039062 42.4375 C 69.925781 42.804688 69.820312 43.183594 69.71875 43.566406 C 69.667969 43.761719 69.613281 43.960938 69.558594 44.164062 C 69.425781 44.640625 69.425781 44.640625 69.441406 45.074219 C 69.363281 45.074219 69.285156 45.074219 69.203125 45.074219 C 69.179688 45.269531 69.179688 45.269531 69.160156 45.46875 C 69.132812 45.609375 69.109375 45.746094 69.082031 45.886719 C 68.964844 45.988281 68.964844 45.988281 68.84375 46.089844 C 68.757812 46.425781 68.679688 46.761719 68.605469 47.105469 C 68.527344 47.105469 68.449219 47.105469 68.367188 47.105469 C 68.367188 47.242188 68.367188 47.375 68.367188 47.511719 C 68.289062 47.511719 68.207031 47.511719 68.128906 47.511719 C 68.085938 47.78125 68.085938 47.78125 68.046875 48.058594 C 67.867188 48.824219 67.660156 49.214844 67.289062 49.746094 C 67.210938 49.746094 67.132812 49.746094 67.050781 49.746094 C 67 50.027344 67 50.027344 66.945312 50.316406 C 66.8125 50.964844 66.8125 50.964844 66.574219 51.574219 C 66.496094 51.574219 66.414062 51.574219 66.335938 51.574219 C 66.335938 51.707031 66.335938 51.839844 66.335938 51.980469 C 66.253906 51.980469 66.175781 51.980469 66.09375 51.980469 C 66.09375 52.113281 66.09375 52.246094 66.09375 52.386719 C 66.015625 52.386719 65.9375 52.386719 65.855469 52.386719 C 65.855469 52.519531 65.855469 52.652344 65.855469 52.792969 C 65.777344 52.792969 65.699219 52.792969 65.617188 52.792969 C 65.617188 52.925781 65.617188 53.058594 65.617188 53.199219 C 65.539062 53.199219 65.460938 53.199219 65.378906 53.199219 C 65.378906 53.332031 65.378906 53.464844 65.378906 53.605469 C 65.179688 53.828125 64.980469 54.035156 64.773438 54.238281 C 64.15625 54.886719 63.605469 55.582031 63.226562 56.648438 C 63.226562 56.917969 63.226562 57.1875 63.226562 57.460938 C 63.894531 57.808594 64.523438 58.09375 65.222656 58.160156 C 65.859375 58.234375 66.273438 58.507812 66.8125 59.085938 C 66.851562 59.289062 66.890625 59.488281 66.933594 59.695312 C 67.011719 59.761719 67.089844 59.828125 67.171875 59.898438 C 67.171875 61.773438 67.171875 63.652344 67.171875 65.582031 C 67.09375 65.652344 67.011719 65.71875 66.933594 65.785156 C 66.917969 65.917969 66.90625 66.046875 66.890625 66.183594 C 66.8125 66.597656 66.8125 66.597656 66.589844 66.808594 C 65.789062 67.191406 65.046875 67.308594 64.21875 67.296875 C 64.101562 67.300781 63.984375 67.304688 63.859375 67.308594 C 63.109375 67.308594 62.636719 67.179688 62.03125 66.394531 C 61.703125 65.691406 61.699219 64.6875 61.628906 63.820312 C 61.507812 62.457031 61.34375 61.328125 60.957031 60.101562 C 60.917969 59.96875 60.878906 59.832031 60.835938 59.695312 C 60.429688 59.820312 60.207031 60.085938 59.878906 60.507812 C 59.214844 61.117188 59.214844 61.117188 58.925781 61.117188 C 58.886719 61.316406 58.84375 61.519531 58.804688 61.726562 C 58.566406 61.871094 58.328125 62.003906 58.085938 62.132812 C 57.753906 62.394531 57.429688 62.683594 57.101562 62.96875 C 56.207031 63.757812 56.207031 63.757812 55.9375 63.757812 C 55.898438 63.890625 55.855469 64.023438 55.816406 64.164062 C 55.738281 64.164062 55.660156 64.164062 55.578125 64.164062 C 55.433594 64.625 55.433594 64.625 55.339844 65.175781 C 55.441406 65.582031 55.441406 65.582031 55.578125 65.988281 C 55.640625 67.058594 55.640625 67.058594 55.429688 67.546875 C 55.15625 67.898438 55 67.894531 54.65625 67.894531 C 54.488281 67.898438 54.488281 67.898438 54.3125 67.902344 C 54.191406 67.902344 54.066406 67.898438 53.941406 67.898438 C 53.816406 67.898438 53.691406 67.898438 53.558594 67.898438 C 53.292969 67.898438 53.027344 67.898438 52.761719 67.898438 C 52.351562 67.894531 51.945312 67.898438 51.535156 67.902344 C 51.277344 67.898438 51.019531 67.898438 50.757812 67.898438 C 50.574219 67.898438 50.574219 67.898438 50.386719 67.902344 C 50.273438 67.898438 50.160156 67.898438 50.042969 67.894531 C 49.945312 67.894531 49.84375 67.894531 49.742188 67.894531 C 49.421875 67.796875 49.3125 67.652344 49.125 67.207031 C 49.050781 66.128906 49.164062 65.492188 49.484375 64.570312 C 49.5625 64.347656 49.640625 64.125 49.71875 63.894531 C 49.800781 63.664062 49.886719 63.429688 49.96875 63.199219 C 50.085938 62.859375 50.085938 62.859375 50.207031 62.511719 C 50.4375 61.839844 50.675781 61.171875 50.917969 60.507812 C 51.03125 60.183594 51.03125 60.183594 51.148438 59.851562 C 51.21875 59.648438 51.292969 59.449219 51.367188 59.242188 C 51.464844 58.972656 51.464844 58.972656 51.5625 58.695312 C 51.753906 58.273438 51.753906 58.273438 52.171875 57.980469 C 52.703125 58.09375 52.984375 58.378906 53.425781 58.882812 C 53.425781 59.21875 53.425781 59.554688 53.425781 59.898438 C 53.503906 59.898438 53.585938 59.898438 53.664062 59.898438 C 53.664062 60.03125 53.664062 60.167969 53.664062 60.304688 C 54.871094 59.53125 56.0625 58.726562 57.207031 57.714844 C 57.292969 57.640625 57.378906 57.566406 57.464844 57.492188 C 57.882812 57.109375 58.179688 56.839844 58.328125 56.039062 C 57.496094 55.734375 56.671875 55.53125 55.828125 55.382812 C 55.394531 55.203125 55.246094 55.023438 54.980469 54.417969 C 54.660156 53.292969 54.703125 52.097656 54.703125 50.875 C 54.703125 50.671875 54.699219 50.464844 54.699219 50.253906 C 54.699219 49.054688 54.730469 48.144531 55.097656 47.105469 C 55.554688 46.449219 56.027344 46.394531 56.601562 46.320312 C 58.246094 46.035156 59.582031 44.855469 60.644531 42.695312 C 61.332031 41.042969 61.625 39.191406 61.726562 37.207031 C 61.769531 36.445312 61.859375 35.9375 62.152344 35.328125 C 62.566406 34.871094 62.921875 34.871094 63.410156 34.871094 C 63.5625 34.871094 63.710938 34.867188 63.867188 34.867188 C 63.949219 34.871094 64.027344 34.871094 64.105469 34.871094 C 64.347656 34.875 64.585938 34.871094 64.824219 34.867188 C 65.050781 34.867188 65.050781 34.867188 65.285156 34.871094 C 65.421875 34.871094 65.5625 34.871094 65.703125 34.871094 C 66.113281 34.925781 66.433594 35.0625 66.8125 35.328125 C 66.96875 35.75 66.96875 35.75 67.050781 36.140625 C 67.089844 36.210938 67.128906 36.277344 67.171875 36.34375 C 67.203125 37.214844 67.195312 38.085938 67.195312 38.960938 C 67.195312 39.207031 67.195312 39.449219 67.199219 39.703125 C 67.199219 39.941406 67.199219 40.175781 67.199219 40.417969 C 67.199219 40.632812 67.199219 40.851562 67.199219 41.074219 C 67.148438 42.050781 66.753906 42.628906 66.335938 43.25 C 65.753906 43.585938 65.179688 43.746094 64.570312 43.871094 C 63.949219 43.996094 63.949219 43.996094 63.347656 44.265625 C 63.308594 44.398438 63.269531 44.53125 63.226562 44.671875 C 63.144531 44.6875 63.0625 44.703125 62.980469 44.722656 C 62.078125 45.113281 61.421875 46.402344 60.957031 47.714844 C 60.804688 48.351562 60.804688 48.351562 60.71875 48.933594 C 60.640625 49.207031 60.5625 49.480469 60.476562 49.746094 C 60.558594 49.746094 60.636719 49.746094 60.71875 49.746094 C 60.714844 49.925781 60.707031 50.105469 60.703125 50.289062 C 60.699219 50.640625 60.699219 50.640625 60.695312 51.003906 C 60.691406 51.234375 60.6875 51.46875 60.683594 51.710938 C 60.71875 52.441406 60.828125 52.8125 61.074219 53.402344 C 64.289062 50.109375 67.628906 44.265625 68.605469 37.96875 C 68.816406 36.378906 68.792969 34.976562 68.367188 33.503906 C 67.734375 31.9375 67.011719 31.132812 65.921875 30.742188 C 65.390625 30.597656 64.863281 30.601562 64.324219 30.609375 C 64.152344 30.609375 64.152344 30.609375 63.976562 30.613281 C 62.875 30.636719 61.875 30.859375 60.835938 31.472656 C 60.65625 31.53125 60.472656 31.585938 60.292969 31.636719 C 58.90625 32.09375 57.496094 33.183594 56.273438 34.363281 C 56.054688 34.519531 56.054688 34.519531 55.695312 34.316406 C 58.707031 31.472656 58.707031 31.472656 59.761719 31.472656 C 59.800781 31.269531 59.839844 31.070312 59.878906 30.863281 C 60.097656 30.691406 60.097656 30.691406 60.386719 30.558594 C 60.550781 30.484375 60.550781 30.484375 60.71875 30.40625 C 61.351562 30.136719 61.988281 29.878906 62.628906 29.644531 C 62.851562 29.558594 62.851562 29.558594 63.078125 29.472656 C 64.835938 28.820312 66.4375 28.710938 68.132812 29.828125 Z M 68.132812 29.828125 "/>
<path style=" stroke:none;fill-rule:nonzero;fill:rgb(0.784314%,66.274512%,85.490197%);fill-opacity:1;" d="M 63.410156 34.871094 C 63.5625 34.871094 63.710938 34.867188 63.867188 34.867188 C 63.949219 34.871094 64.027344 34.871094 64.105469 34.871094 C 64.347656 34.875 64.585938 34.871094 64.824219 34.867188 C 64.976562 34.867188 65.128906 34.871094 65.285156 34.871094 C 65.492188 34.871094 65.492188 34.871094 65.703125 34.871094 C 66.113281 34.925781 66.433594 35.0625 66.8125 35.328125 C 66.96875 35.75 66.96875 35.75 67.050781 36.140625 C 67.109375 36.242188 67.109375 36.242188 67.171875 36.34375 C 67.203125 37.214844 67.195312 38.085938 67.195312 38.960938 C 67.195312 39.207031 67.195312 39.449219 67.199219 39.703125 C 67.199219 39.941406 67.199219 40.175781 67.199219 40.417969 C 67.199219 40.632812 67.199219 40.851562 67.199219 41.074219 C 67.148438 42.050781 66.753906 42.628906 66.335938 43.25 C 65.753906 43.585938 65.179688 43.746094 64.570312 43.871094 C 63.949219 43.996094 63.949219 43.996094 63.347656 44.265625 C 63.289062 44.464844 63.289062 44.464844 63.226562 44.671875 C 63.144531 44.6875 63.0625 44.703125 62.980469 44.722656 C 62.078125 45.113281 61.421875 46.402344 60.957031 47.714844 C 60.804688 48.351562 60.804688 48.351562 60.71875 48.933594 C 60.640625 49.207031 60.5625 49.480469 60.476562 49.746094 C 60.558594 49.746094 60.636719 49.746094 60.71875 49.746094 C 60.710938 49.921875 60.707031 50.09375 60.699219 50.273438 C 60.695312 50.503906 60.691406 50.738281 60.6875 50.976562 C 60.683594 51.207031 60.675781 51.433594 60.671875 51.667969 C 60.730469 52.574219 60.90625 53.046875 61.195312 53.808594 C 60.238281 54.890625 59.28125 55.972656 58.328125 57.054688 C 58.246094 56.988281 58.167969 56.921875 58.085938 56.851562 C 58.167969 56.585938 58.246094 56.316406 58.328125 56.039062 C 57.496094 55.734375 56.671875 55.53125 55.828125 55.382812 C 55.394531 55.203125 55.246094 55.023438 54.980469 54.417969 C 54.660156 53.292969 54.703125 52.097656 54.703125 50.875 C 54.703125 50.671875 54.699219 50.464844 54.699219 50.253906 C 54.699219 49.054688 54.730469 48.144531 55.097656 47.105469 C 55.554688 46.449219 56.027344 46.394531 56.601562 46.320312 C 58.246094 46.035156 59.582031 44.855469 60.644531 42.695312 C 61.332031 41.042969 61.625 39.191406 61.726562 37.207031 C 61.769531 36.445312 61.859375 35.9375 62.152344 35.328125 C 62.566406 34.871094 62.921875 34.871094 63.410156 34.871094 Z M 63.410156 34.871094 "/>
<path style=" stroke:none;fill-rule:nonzero;fill:rgb(0.392157%,66.666669%,85.882354%);fill-opacity:1;" d="M 63.464844 55.835938 C 63.425781 55.953125 63.386719 56.070312 63.347656 56.191406 C 63.195312 56.691406 63.195312 56.691406 63.226562 57.460938 C 63.894531 57.808594 64.523438 58.09375 65.222656 58.160156 C 65.859375 58.234375 66.273438 58.507812 66.8125 59.085938 C 66.871094 59.386719 66.871094 59.386719 66.933594 59.695312 C 67.011719 59.761719 67.089844 59.828125 67.171875 59.898438 C 67.171875 61.773438 67.171875 63.652344 67.171875 65.582031 C 67.054688 65.683594 67.054688 65.683594 66.933594 65.785156 C 66.917969 65.917969 66.90625 66.046875 66.890625 66.183594 C 66.8125 66.597656 66.8125 66.597656 66.589844 66.808594 C 65.789062 67.191406 65.046875 67.308594 64.21875 67.296875 C 64.101562 67.300781 63.984375 67.304688 63.859375 67.308594 C 63.109375 67.308594 62.636719 67.179688 62.03125 66.394531 C 61.703125 65.691406 61.699219 64.6875 61.628906 63.820312 C 61.507812 62.457031 61.34375 61.328125 60.957031 60.101562 C 60.917969 59.96875 60.878906 59.832031 60.835938 59.695312 C 60.71875 59.5625 60.601562 59.425781 60.476562 59.289062 C 60.535156 59.222656 60.59375 59.152344 60.652344 59.082031 C 60.917969 58.765625 61.183594 58.449219 61.449219 58.132812 C 61.539062 58.027344 61.632812 57.917969 61.726562 57.808594 C 62.136719 57.316406 62.539062 56.824219 62.917969 56.265625 C 63.226562 55.835938 63.226562 55.835938 63.464844 55.835938 Z M 63.464844 55.835938 "/>
<path style=" stroke:none;fill-rule:nonzero;fill:rgb(0.392157%,66.274512%,85.09804%);fill-opacity:1;" d="M 54.742188 34.519531 C 55.054688 34.519531 55.371094 34.519531 55.695312 34.519531 C 55.394531 35.046875 55.09375 35.511719 54.742188 35.9375 C 54.800781 36.140625 54.800781 36.140625 54.859375 36.34375 C 54.871094 36.847656 54.875 37.347656 54.871094 37.851562 C 54.871094 38 54.871094 38.148438 54.871094 38.300781 C 54.871094 38.773438 54.871094 39.246094 54.867188 39.722656 C 54.867188 40.042969 54.867188 40.363281 54.867188 40.683594 C 54.863281 41.472656 54.863281 42.257812 54.859375 43.046875 C 54.78125 43.046875 54.703125 43.046875 54.621094 43.046875 C 54.621094 43.179688 54.621094 43.3125 54.621094 43.453125 C 53.84375 43.6875 53.074219 43.699219 52.285156 43.707031 C 52.085938 43.710938 52.085938 43.710938 51.882812 43.71875 C 50.601562 43.730469 50.601562 43.730469 50.078125 43.046875 C 49.570312 41.929688 49.664062 40.535156 49.667969 39.1875 C 49.667969 38.953125 49.664062 38.714844 49.660156 38.472656 C 49.660156 37.171875 49.664062 36.300781 50.199219 35.328125 C 50.628906 34.84375 50.820312 34.875 51.328125 34.878906 C 51.484375 34.878906 51.636719 34.878906 51.792969 34.878906 C 51.910156 34.878906 51.910156 34.878906 52.03125 34.882812 C 52.273438 34.886719 52.515625 34.886719 52.757812 34.886719 C 54.042969 34.894531 54.042969 34.894531 54.621094 35.125 C 54.660156 34.925781 54.699219 34.726562 54.742188 34.519531 Z M 54.742188 34.519531 "/>
<path style=" stroke:none;fill-rule:nonzero;fill:rgb(64.313728%,65.490198%,66.274512%);fill-opacity:1;" d="M 48.882812 42.640625 C 49.003906 42.707031 49.121094 42.773438 49.242188 42.84375 C 49.097656 43.761719 48.925781 44.21875 48.527344 44.875 C 48.527344 45.074219 48.527344 45.273438 48.527344 45.480469 C 48.441406 45.53125 48.351562 45.582031 48.265625 45.632812 C 47.890625 45.917969 47.628906 46.222656 47.332031 46.699219 C 47.226562 47.132812 47.226562 47.132812 47.210938 47.511719 C 47.132812 47.511719 47.054688 47.511719 46.972656 47.511719 C 46.933594 47.714844 46.894531 47.914062 46.851562 48.121094 C 46.734375 48.121094 46.617188 48.121094 46.492188 48.121094 C 46.519531 48.242188 46.546875 48.363281 46.578125 48.488281 C 46.589844 48.636719 46.601562 48.78125 46.613281 48.933594 C 46.472656 49.226562 46.472656 49.226562 46.253906 49.542969 C 45.515625 50.882812 45.121094 52.601562 45.058594 54.417969 C 44.980469 54.417969 44.902344 54.417969 44.820312 54.417969 C 44.808594 55.066406 44.832031 55.621094 44.941406 56.242188 C 44.820312 56.242188 44.703125 56.242188 44.582031 56.242188 C 44.582031 56.78125 44.582031 57.316406 44.582031 57.867188 C 44.699219 57.867188 44.816406 57.867188 44.941406 57.867188 C 44.902344 58.269531 44.863281 58.671875 44.820312 59.085938 C 44.898438 59.152344 44.976562 59.21875 45.058594 59.289062 C 45.070312 59.449219 45.085938 59.609375 45.097656 59.773438 C 45.148438 60.347656 45.148438 60.347656 45.464844 60.609375 C 45.566406 60.710938 45.671875 60.808594 45.777344 60.914062 C 45.824219 61.078125 45.871094 61.242188 45.917969 61.410156 C 46.4375 62.652344 47.574219 62.875 48.40625 63.148438 C 48.246094 64.109375 48.007812 64.835938 47.675781 65.660156 C 47.585938 65.875 47.5 66.089844 47.410156 66.3125 C 47.34375 66.472656 47.28125 66.636719 47.210938 66.800781 C 45.976562 66.648438 44.832031 65.894531 43.96875 64.339844 C 43.054688 62.394531 43.011719 60.261719 43.148438 57.867188 C 43.488281 54.234375 44.691406 50.675781 46.089844 47.894531 C 46.34375 47.375 46.535156 46.875 46.734375 46.292969 C 46.875 45.941406 47.015625 45.589844 47.160156 45.242188 C 47.230469 45.066406 47.300781 44.890625 47.375 44.710938 C 47.652344 44.070312 47.957031 43.660156 48.339844 43.210938 C 48.433594 43.097656 48.527344 42.988281 48.621094 42.871094 C 48.707031 42.796875 48.796875 42.71875 48.882812 42.640625 Z M 48.882812 42.640625 "/>
<path style=" stroke:none;fill-rule:nonzero;fill:rgb(0.392157%,59.607846%,76.47059%);fill-opacity:1;" d="M 60.257812 74.578125 C 60.699219 74.867188 60.875 75.660156 61.074219 76.34375 C 61.25 77.398438 61.207031 78.503906 61.195312 79.59375 C 61.117188 79.59375 61.039062 79.59375 60.957031 79.59375 C 60.828125 80.132812 60.707031 80.667969 60.597656 81.21875 C 60.214844 81.476562 59.816406 81.453125 59.410156 81.460938 C 59.289062 81.460938 59.167969 81.464844 59.039062 81.46875 C 58.667969 81.417969 58.417969 81.304688 58.085938 81.015625 C 57.464844 79.636719 57.398438 78.445312 57.488281 76.75 C 57.640625 75.9375 57.910156 75.421875 58.273438 74.835938 C 58.921875 74.335938 59.5625 74.417969 60.257812 74.578125 Z M 59.28125 75.53125 C 59.28125 75.800781 59.28125 76.070312 59.28125 76.34375 C 59.28125 76.820312 59.28125 77.292969 59.28125 77.765625 C 59.046875 77.96875 59.046875 77.96875 58.804688 78.171875 C 58.832031 78.292969 58.859375 78.414062 58.886719 78.539062 C 58.90625 78.761719 58.90625 78.761719 58.925781 78.984375 C 58.753906 79.339844 58.753906 79.339844 58.566406 79.59375 C 58.605469 79.796875 58.644531 79.996094 58.683594 80.203125 C 58.882812 80.269531 59.078125 80.335938 59.28125 80.40625 C 59.699219 79.191406 59.828125 78.351562 59.761719 76.953125 C 59.683594 76.953125 59.601562 76.953125 59.523438 76.953125 C 59.601562 76.484375 59.679688 76.015625 59.761719 75.53125 C 59.601562 75.53125 59.445312 75.53125 59.28125 75.53125 Z M 59.640625 76.34375 C 59.679688 76.546875 59.71875 76.746094 59.761719 76.953125 C 59.761719 76.753906 59.761719 76.550781 59.761719 76.34375 C 59.722656 76.34375 59.683594 76.34375 59.640625 76.34375 Z M 58.566406 76.546875 C 58.605469 76.75 58.644531 76.949219 58.683594 77.15625 C 58.683594 76.957031 58.683594 76.753906 58.683594 76.546875 C 58.644531 76.546875 58.605469 76.546875 58.566406 76.546875 Z M 59.878906 76.953125 C 60 77.765625 60 77.765625 60 77.765625 Z M 58.207031 78.375 C 58.246094 78.710938 58.285156 79.046875 58.328125 79.390625 C 58.367188 79.390625 58.40625 79.390625 58.445312 79.390625 C 58.445312 79.054688 58.445312 78.722656 58.445312 78.375 C 58.367188 78.375 58.289062 78.375 58.207031 78.375 Z M 58.683594 78.375 C 58.804688 78.984375 58.804688 78.984375 58.804688 78.984375 Z M 59.878906 78.375 C 60 79.1875 60 79.1875 60 79.1875 Z M 59.878906 78.375 "/>
<path style=" stroke:none;fill-rule:nonzero;fill:rgb(0.392157%,63.921571%,82.352942%);fill-opacity:1;" d="M 49.035156 74.734375 C 49.550781 74.953125 49.710938 74.820312 50.199219 74.519531 C 50.648438 74.410156 51.027344 74.390625 51.433594 74.796875 C 52.1875 76.792969 52.03125 79.144531 51.992188 81.421875 C 51.15625 81.484375 51.15625 81.484375 50.796875 81.015625 C 50.726562 80.589844 50.726562 80.589844 50.714844 80.101562 C 50.695312 79.414062 50.695312 79.414062 50.558594 78.78125 C 50.542969 78.550781 50.527344 78.320312 50.511719 78.082031 C 50.472656 77.304688 50.472656 77.304688 50.078125 76.75 C 50.078125 77.6875 50.078125 78.628906 50.078125 79.59375 C 49.578125 78.746094 49.472656 77.691406 49.363281 76.546875 C 49.285156 76.480469 49.203125 76.414062 49.125 76.34375 C 49.125 76.613281 49.125 76.882812 49.125 77.15625 C 49.203125 77.15625 49.28125 77.15625 49.363281 77.15625 C 49.378906 77.355469 49.390625 77.550781 49.40625 77.753906 C 49.433594 77.960938 49.457031 78.164062 49.480469 78.375 C 49.5625 78.441406 49.640625 78.507812 49.722656 78.578125 C 49.734375 78.972656 49.742188 79.367188 49.75 79.757812 C 49.757812 79.976562 49.761719 80.195312 49.769531 80.421875 C 49.722656 81.015625 49.722656 81.015625 49.503906 81.394531 C 49.15625 81.699219 48.910156 81.695312 48.527344 81.625 C 48.445312 81.492188 48.367188 81.355469 48.285156 81.21875 C 48.3125 80.890625 48.335938 80.566406 48.371094 80.242188 C 48.414062 79.714844 48.410156 79.210938 48.40625 78.679688 C 48.402344 78.023438 48.417969 77.453125 48.472656 76.800781 C 48.53125 76.0625 48.484375 75.449219 48.40625 74.722656 C 48.644531 74.519531 48.644531 74.519531 49.035156 74.734375 Z M 50.320312 75.9375 C 50.238281 76.074219 50.160156 76.207031 50.078125 76.34375 C 50.152344 76.425781 50.226562 76.503906 50.304688 76.585938 C 50.597656 77.011719 50.679688 77.355469 50.796875 77.96875 C 50.875 77.902344 50.953125 77.835938 51.035156 77.765625 C 50.996094 76.75 50.996094 76.75 50.675781 75.9375 C 50.558594 75.9375 50.441406 75.9375 50.320312 75.9375 Z M 49.125 77.359375 C 49.125 77.964844 49.125 78.566406 49.125 79.1875 C 49.164062 79.1875 49.203125 79.1875 49.242188 79.1875 C 49.242188 78.585938 49.242188 77.980469 49.242188 77.359375 C 49.203125 77.359375 49.164062 77.359375 49.125 77.359375 Z M 51.632812 80.40625 C 51.753906 80.8125 51.753906 80.8125 51.753906 80.8125 Z M 51.632812 80.40625 "/>
<path style=" stroke:none;fill-rule:nonzero;fill:rgb(0.392157%,61.176473%,78.431374%);fill-opacity:1;" d="M 40.757812 71.675781 C 40.992188 71.808594 41.230469 71.941406 41.472656 72.082031 C 41.511719 73.289062 41.554688 74.492188 41.59375 75.734375 C 41.710938 75.667969 41.832031 75.601562 41.953125 75.53125 C 41.988281 75.414062 42.019531 75.296875 42.058594 75.175781 C 42.296875 74.363281 42.726562 73.808594 43.109375 73.183594 C 43.351562 72.753906 43.496094 72.425781 43.625 71.878906 C 43.855469 71.941406 43.855469 71.941406 44.105469 72.082031 C 44.222656 72.691406 44.222656 72.691406 44.125 73.160156 C 43.820312 74.175781 43.554688 75.011719 43.027344 75.734375 C 42.949219 75.734375 42.871094 75.734375 42.789062 75.734375 C 42.6875 76.214844 42.652344 76.464844 42.75 76.953125 C 42.90625 77.386719 42.90625 77.386719 43.15625 77.765625 C 43.386719 78.171875 43.386719 78.171875 43.4375 78.589844 C 43.539062 79.1875 43.796875 79.300781 44.105469 79.59375 C 44.105469 79.726562 44.105469 79.863281 44.105469 80 C 44.183594 80 44.261719 80 44.34375 80 C 44.34375 80.132812 44.34375 80.269531 44.34375 80.40625 C 44.421875 80.472656 44.5 80.539062 44.582031 80.609375 C 44.582031 80.808594 44.582031 81.011719 44.582031 81.21875 C 44.257812 81.390625 44.074219 81.476562 43.746094 81.421875 C 42.769531 80.503906 42.183594 78.609375 41.714844 76.953125 C 41.671875 76.953125 41.632812 76.953125 41.59375 76.953125 C 41.589844 77.550781 41.589844 78.148438 41.585938 78.742188 C 41.585938 78.996094 41.585938 78.996094 41.582031 79.257812 C 41.582031 79.417969 41.582031 79.582031 41.582031 79.75 C 41.582031 79.898438 41.582031 80.050781 41.578125 80.203125 C 41.585938 80.652344 41.585938 80.652344 41.714844 81.21875 C 41.417969 81.320312 41.417969 81.320312 41.117188 81.421875 C 40.816406 80.832031 40.710938 80.476562 40.714844 79.695312 C 40.714844 79.519531 40.714844 79.339844 40.714844 79.15625 C 40.71875 78.964844 40.71875 78.773438 40.722656 78.574219 C 40.722656 78.378906 40.722656 78.179688 40.722656 77.976562 C 40.726562 77.347656 40.730469 76.71875 40.734375 76.089844 C 40.738281 75.664062 40.738281 75.238281 40.738281 74.8125 C 40.742188 73.765625 40.75 72.71875 40.757812 71.675781 Z M 40.757812 71.675781 "/>
<path style=" stroke:none;fill-rule:nonzero;fill:rgb(0.392157%,54.901963%,70.588237%);fill-opacity:1;" d="M 47.089844 74.519531 C 47.445312 74.769531 47.613281 74.972656 47.855469 75.46875 C 47.964844 76.175781 47.933594 76.863281 47.808594 77.5625 C 47.59375 78.101562 47.453125 78.171875 47.074219 78.320312 C 46.933594 78.351562 46.796875 78.382812 46.652344 78.414062 C 46.511719 78.445312 46.367188 78.476562 46.222656 78.511719 C 46.117188 78.535156 46.007812 78.554688 45.894531 78.578125 C 45.855469 78.78125 45.816406 78.980469 45.777344 79.1875 C 45.738281 79.253906 45.699219 79.320312 45.65625 79.390625 C 45.777344 79.457031 45.894531 79.523438 46.015625 79.59375 C 46.015625 79.726562 46.015625 79.863281 46.015625 80 C 46.265625 80.25 46.265625 80.25 46.613281 80.203125 C 46.613281 80.335938 46.613281 80.472656 46.613281 80.609375 C 46.730469 80.609375 46.851562 80.609375 46.972656 80.609375 C 47.050781 80.339844 47.128906 80.074219 47.210938 79.796875 C 47.367188 79.863281 47.527344 79.929688 47.6875 80 C 47.648438 80.335938 47.609375 80.671875 47.570312 81.015625 C 46.828125 81.519531 46.214844 81.652344 45.476562 81.117188 C 45.378906 81.015625 45.28125 80.914062 45.179688 80.8125 C 45.179688 80.679688 45.179688 80.542969 45.179688 80.40625 C 45.0625 80.273438 44.941406 80.136719 44.820312 80 C 44.574219 78.8125 44.519531 77.773438 44.703125 76.546875 C 45.230469 74.785156 45.976562 74.253906 47.089844 74.519531 Z M 45.65625 75.9375 C 45.359375 76.628906 45.296875 76.886719 45.296875 77.765625 C 45.613281 77.765625 45.929688 77.765625 46.253906 77.765625 C 46.253906 77.632812 46.253906 77.5 46.253906 77.359375 C 46.34375 77.371094 46.433594 77.386719 46.523438 77.398438 C 46.910156 77.355469 47.058594 77.214844 47.332031 76.75 C 47.332031 76.550781 47.332031 76.347656 47.332031 76.140625 C 46.484375 75.476562 46.484375 75.476562 45.65625 75.9375 Z M 45.296875 78.375 C 45.339844 78.644531 45.378906 78.910156 45.417969 79.1875 C 45.457031 78.917969 45.496094 78.652344 45.539062 78.375 C 45.457031 78.375 45.378906 78.375 45.296875 78.375 Z M 45.296875 78.375 "/>
<path style=" stroke:none;fill-rule:nonzero;fill:rgb(0.392157%,59.215689%,76.078433%);fill-opacity:1;" d="M 61.914062 74.519531 C 62.023438 74.589844 62.132812 74.660156 62.25 74.734375 C 62.710938 74.964844 62.796875 74.824219 63.226562 74.519531 C 63.769531 74.398438 64.167969 74.386719 64.644531 74.859375 C 65.246094 75.972656 65.316406 76.800781 65.304688 78.261719 C 65.304688 78.429688 65.304688 78.601562 65.308594 78.773438 C 65.304688 79.8125 65.226562 80.515625 64.902344 81.421875 C 64.703125 81.355469 64.507812 81.289062 64.304688 81.21875 C 64.300781 81.074219 64.296875 80.929688 64.296875 80.78125 C 64.285156 80.125 64.269531 79.472656 64.257812 78.820312 C 64.253906 78.59375 64.25 78.363281 64.246094 78.132812 C 64.242188 77.914062 64.238281 77.695312 64.234375 77.46875 C 64.226562 77.167969 64.226562 77.167969 64.222656 76.863281 C 64.203125 76.296875 64.203125 76.296875 63.945312 75.734375 C 63.535156 75.675781 63.257812 75.71875 62.867188 75.9375 C 62.828125 76.074219 62.789062 76.207031 62.75 76.34375 C 62.671875 76.34375 62.589844 76.34375 62.511719 76.34375 C 62.511719 77.953125 62.511719 79.5625 62.511719 81.21875 C 62.03125 81.421875 62.03125 81.421875 61.792969 81.421875 C 61.792969 81.246094 61.792969 81.074219 61.792969 80.894531 C 61.796875 80.246094 61.796875 79.597656 61.800781 78.949219 C 61.800781 78.671875 61.800781 78.390625 61.800781 78.109375 C 61.804688 77.707031 61.804688 77.304688 61.804688 76.898438 C 61.804688 76.65625 61.804688 76.414062 61.804688 76.164062 C 61.796875 75.640625 61.765625 75.21875 61.671875 74.722656 C 61.753906 74.652344 61.832031 74.585938 61.914062 74.519531 Z M 61.914062 74.519531 "/>
<path style=" stroke:none;fill-rule:nonzero;fill:rgb(0.392157%,56.862748%,72.941178%);fill-opacity:1;" d="M 72.789062 74.519531 C 73.074219 74.738281 73.261719 74.980469 73.507812 75.328125 C 73.464844 75.664062 73.425781 76 73.386719 76.34375 C 73.121094 76.25 72.914062 76.148438 72.675781 75.914062 C 72.34375 75.675781 72.171875 75.746094 71.832031 75.9375 C 71.617188 76.234375 71.617188 76.234375 71.472656 76.546875 C 71.472656 76.414062 71.472656 76.28125 71.472656 76.140625 C 71.394531 76.140625 71.316406 76.140625 71.234375 76.140625 C 71.304688 76.554688 71.304688 76.554688 71.472656 76.953125 C 71.796875 77.148438 71.796875 77.148438 72.167969 77.246094 C 72.625 77.421875 72.90625 77.558594 73.304688 77.996094 C 73.554688 78.722656 73.558594 79.152344 73.46875 79.96875 C 73.328125 80.726562 73.191406 81.003906 72.789062 81.421875 C 72.105469 81.605469 71.460938 81.609375 70.847656 81.015625 C 70.738281 80.882812 70.628906 80.746094 70.519531 80.609375 C 70.519531 80.339844 70.519531 80.074219 70.519531 79.796875 C 70.597656 79.796875 70.675781 79.796875 70.757812 79.796875 C 70.757812 79.664062 70.757812 79.527344 70.757812 79.390625 C 71.027344 79.601562 71.226562 79.78125 71.4375 80.140625 C 71.875 80.5625 72.304688 80.347656 72.789062 80.203125 C 72.75 79.800781 72.710938 79.398438 72.667969 78.984375 C 72.570312 78.9375 72.472656 78.886719 72.371094 78.835938 C 72.179688 78.734375 72.179688 78.734375 71.980469 78.628906 C 71.789062 78.53125 71.789062 78.53125 71.59375 78.429688 C 71.214844 78.15625 71.011719 77.910156 70.757812 77.359375 C 70.757812 77.160156 70.757812 76.957031 70.757812 76.75 C 70.636719 76.683594 70.519531 76.617188 70.398438 76.546875 C 70.453125 76.425781 70.507812 76.304688 70.5625 76.179688 C 70.714844 75.835938 70.855469 75.484375 70.996094 75.125 C 71.53125 74.363281 72.121094 74.347656 72.789062 74.519531 Z M 72.789062 74.519531 "/>
<path style=" stroke:none;fill-rule:nonzero;fill:rgb(0.392157%,58.431375%,74.901962%);fill-opacity:1;" d="M 52.710938 73.097656 C 52.945312 73.097656 53.183594 73.097656 53.425781 73.097656 C 53.578125 73.6875 53.664062 74.070312 53.664062 74.722656 C 53.785156 74.652344 53.902344 74.585938 54.023438 74.519531 C 54.304688 74.507812 54.582031 74.507812 54.859375 74.519531 C 54.820312 74.851562 54.78125 75.1875 54.742188 75.53125 C 54.589844 75.558594 54.433594 75.582031 54.277344 75.609375 C 53.863281 75.671875 53.863281 75.671875 53.546875 76.140625 C 53.523438 76.722656 53.519531 77.277344 53.523438 77.855469 C 53.523438 78.011719 53.523438 78.171875 53.523438 78.332031 C 53.527344 79.003906 53.539062 79.5625 53.664062 80.203125 C 54.046875 80.480469 54.347656 80.371094 54.742188 80.203125 C 54.78125 80.472656 54.820312 80.738281 54.859375 81.015625 C 54.421875 81.511719 54.058594 81.542969 53.546875 81.421875 C 53.269531 81.117188 53.269531 81.117188 53.066406 80.8125 C 52.949219 80.8125 52.832031 80.8125 52.710938 80.8125 C 52.714844 80.6875 52.71875 80.566406 52.722656 80.441406 C 52.738281 79.878906 52.75 79.316406 52.761719 78.757812 C 52.769531 78.5625 52.777344 78.371094 52.78125 78.171875 C 52.808594 77.078125 52.808594 77.078125 52.519531 76.136719 C 52.3125 75.835938 52.105469 75.574219 51.871094 75.328125 C 51.910156 75.0625 51.953125 74.792969 51.992188 74.519531 C 52.1875 74.449219 52.386719 74.382812 52.589844 74.316406 C 52.589844 74.179688 52.589844 74.046875 52.589844 73.910156 C 52.472656 73.839844 52.351562 73.773438 52.230469 73.707031 C 52.390625 73.636719 52.546875 73.570312 52.710938 73.503906 C 52.710938 73.367188 52.710938 73.234375 52.710938 73.097656 Z M 52.710938 73.097656 "/>
<path style=" stroke:none;fill-rule:nonzero;fill:rgb(0.392157%,55.29412%,71.372551%);fill-opacity:1;" d="M 69.679688 74.519531 C 70.015625 74.90625 70.121094 75.140625 70.25 75.785156 C 70.265625 75.960938 70.265625 75.960938 70.277344 76.140625 C 70.042969 76.34375 70.042969 76.34375 69.800781 76.546875 C 69.738281 76.414062 69.671875 76.28125 69.605469 76.140625 C 69.335938 75.671875 69.335938 75.671875 68.933594 75.683594 C 68.824219 75.703125 68.71875 75.71875 68.605469 75.734375 C 68.566406 75.9375 68.527344 76.136719 68.484375 76.34375 C 68.328125 76.34375 68.171875 76.34375 68.007812 76.34375 C 68.003906 76.738281 68.003906 77.132812 68 77.523438 C 68 77.746094 67.996094 77.964844 67.996094 78.1875 C 67.992188 78.796875 67.992188 78.796875 68.128906 79.390625 C 68.246094 79.457031 68.363281 79.523438 68.484375 79.59375 C 68.527344 79.796875 68.566406 79.996094 68.605469 80.203125 C 69.167969 80.304688 69.167969 80.304688 69.652344 79.910156 C 69.699219 79.804688 69.75 79.703125 69.800781 79.59375 C 70.039062 79.457031 70.277344 79.324219 70.519531 79.1875 C 70.414062 80.175781 70.414062 80.175781 70.277344 80.40625 C 70.359375 80.539062 70.4375 80.675781 70.519531 80.8125 C 70.476562 80.945312 70.4375 81.082031 70.398438 81.21875 C 68.261719 81.644531 68.261719 81.644531 67.640625 80.925781 C 67.3125 80.371094 67.171875 79.855469 67.15625 79.042969 C 67.160156 78.890625 67.167969 78.738281 67.171875 78.578125 C 67.175781 78.386719 67.183594 78.191406 67.191406 77.992188 C 67.257812 76.460938 67.257812 76.460938 67.410156 75.9375 C 67.488281 75.9375 67.566406 75.9375 67.648438 75.9375 C 67.648438 75.738281 67.648438 75.535156 67.648438 75.328125 C 68.316406 74.542969 68.867188 74.277344 69.679688 74.519531 Z M 69.679688 74.519531 "/>
<path style=" stroke:none;fill-rule:nonzero;fill:rgb(53.725493%,56.470591%,57.647061%);fill-opacity:1;" d="M 53.1875 86.292969 C 53.433594 86.382812 53.433594 86.382812 53.664062 86.496094 C 53.796875 87.394531 53.792969 88.21875 53.785156 89.136719 C 53.902344 89.070312 54.023438 89.003906 54.144531 88.933594 C 54.183594 88.128906 54.222656 87.324219 54.261719 86.496094 C 54.652344 86.34375 54.652344 86.34375 55.097656 86.292969 C 55.390625 86.6875 55.390625 86.6875 55.578125 87.105469 C 55.617188 86.90625 55.65625 86.703125 55.695312 86.496094 C 56.210938 86.496094 56.722656 86.496094 57.25 86.496094 C 57.25 86.765625 57.25 87.035156 57.25 87.308594 C 57.136719 87.375 57.136719 87.375 57.015625 87.441406 C 56.738281 87.683594 56.738281 87.683594 56.699219 88.242188 C 56.691406 88.546875 56.691406 88.546875 56.683594 88.859375 C 56.675781 89.0625 56.667969 89.265625 56.664062 89.476562 C 56.660156 89.632812 56.65625 89.789062 56.652344 89.949219 C 56.496094 89.949219 56.335938 89.949219 56.175781 89.949219 C 56.136719 89.546875 56.097656 89.144531 56.054688 88.730469 C 55.859375 88.777344 55.667969 88.828125 55.472656 88.882812 C 55.3125 88.925781 55.3125 88.925781 55.144531 88.96875 C 54.839844 89.089844 54.839844 89.089844 54.726562 89.546875 C 54.691406 89.679688 54.65625 89.8125 54.621094 89.949219 C 54.152344 90.175781 53.890625 90.230469 53.441406 89.898438 C 53.1875 89.542969 53.1875 89.542969 53.066406 88.933594 C 53.054688 88.519531 53.050781 88.105469 53.054688 87.691406 C 53.050781 87.472656 53.050781 87.253906 53.050781 87.027344 C 53.066406 86.496094 53.066406 86.496094 53.1875 86.292969 Z M 55.097656 86.902344 C 55.058594 87.238281 55.019531 87.574219 54.980469 87.917969 C 55.097656 88.019531 55.097656 88.019531 55.21875 88.121094 C 55.21875 87.71875 55.21875 87.316406 55.21875 86.902344 C 55.179688 86.902344 55.140625 86.902344 55.097656 86.902344 Z M 55.457031 87.308594 C 55.578125 87.714844 55.578125 87.714844 55.578125 87.714844 Z M 55.457031 87.308594 "/>
<path style=" stroke:none;fill-rule:nonzero;fill:rgb(0.392157%,52.941179%,67.843139%);fill-opacity:1;" d="M 55.21875 74.519531 C 55.332031 74.542969 55.332031 74.542969 55.445312 74.570312 C 55.59375 74.601562 55.59375 74.601562 55.742188 74.632812 C 55.886719 74.664062 55.886719 74.664062 56.035156 74.695312 C 56.300781 74.757812 56.300781 74.757812 56.535156 74.519531 C 56.773438 74.507812 57.011719 74.507812 57.25 74.519531 C 57.363281 75.128906 57.375 75.304688 57.25 75.9375 C 57.054688 75.804688 56.855469 75.671875 56.652344 75.53125 C 56.621094 75.691406 56.589844 75.851562 56.554688 76.015625 C 56.414062 76.546875 56.414062 76.546875 56.054688 76.953125 C 56.09375 77.089844 56.132812 77.222656 56.175781 77.359375 C 56.199219 77.90625 56.1875 78.4375 56.175781 78.984375 C 56.136719 79.050781 56.097656 79.117188 56.054688 79.1875 C 56.046875 79.53125 56.046875 79.875 56.046875 80.214844 C 56.050781 80.496094 56.050781 80.496094 56.050781 80.78125 C 56.054688 80.925781 56.054688 81.070312 56.054688 81.21875 C 55.839844 81.359375 55.839844 81.359375 55.578125 81.421875 C 55.386719 81.195312 55.386719 81.195312 55.21875 80.8125 C 55.164062 80.273438 55.164062 80.273438 55.152344 79.632812 C 55.148438 79.402344 55.144531 79.171875 55.140625 78.929688 C 55.136719 78.691406 55.132812 78.449219 55.128906 78.199219 C 55.125 77.957031 55.121094 77.71875 55.113281 77.46875 C 55.097656 76.449219 55.082031 75.515625 55.21875 74.519531 Z M 55.21875 74.519531 "/>
<path style=" stroke:none;fill-rule:nonzero;fill:rgb(64.705884%,65.882355%,66.666669%);fill-opacity:1;" d="M 50.320312 86.496094 C 50.320312 86.632812 50.320312 86.765625 50.320312 86.902344 C 50.398438 86.902344 50.476562 86.902344 50.558594 86.902344 C 50.707031 87.410156 50.691406 87.761719 50.691406 88.324219 C 50.691406 88.59375 50.691406 88.59375 50.691406 88.871094 C 50.675781 89.339844 50.675781 89.339844 50.558594 89.746094 C 49.984375 90.054688 49.441406 90.289062 48.878906 89.898438 C 48.410156 89.179688 48.410156 89.179688 48.355469 88.363281 C 48.363281 87.640625 48.402344 87.519531 48.683594 86.917969 C 49.265625 86.15625 49.632812 86.324219 50.320312 86.496094 Z M 49.363281 88.324219 C 49.402344 88.457031 49.441406 88.59375 49.480469 88.730469 C 49.523438 88.597656 49.5625 88.464844 49.601562 88.324219 C 49.523438 88.324219 49.445312 88.324219 49.363281 88.324219 Z M 49.363281 88.324219 "/>
<path style=" stroke:none;fill-rule:nonzero;fill:rgb(57.254905%,59.607846%,60.784316%);fill-opacity:1;" d="M 61.074219 86.496094 C 61.472656 86.890625 61.472656 86.890625 61.671875 87.511719 C 61.683594 88.144531 61.632812 88.726562 61.554688 89.339844 C 61.476562 89.339844 61.394531 89.339844 61.316406 89.339844 C 61.265625 89.4375 61.214844 89.53125 61.164062 89.632812 C 60.863281 90.089844 60.640625 90.125 60.238281 90.152344 C 59.851562 89.960938 59.851562 89.960938 59.523438 89.542969 C 59.257812 88.617188 59.230469 87.6875 59.402344 86.699219 C 59.90625 86.273438 60.527344 86.390625 61.074219 86.496094 Z M 60.238281 87.714844 C 60.238281 88.050781 60.238281 88.386719 60.238281 88.730469 C 60.316406 88.730469 60.398438 88.730469 60.476562 88.730469 C 60.4375 88.394531 60.398438 88.0625 60.359375 87.714844 C 60.320312 87.714844 60.28125 87.714844 60.238281 87.714844 Z M 60.238281 87.714844 "/>
<path style=" stroke:none;fill-rule:nonzero;fill:rgb(29.411766%,36.470589%,38.82353%);fill-opacity:1;" d="M 48.882812 42.640625 C 49.003906 42.707031 49.121094 42.773438 49.242188 42.84375 C 49.097656 43.761719 48.925781 44.21875 48.527344 44.875 C 48.527344 45.074219 48.527344 45.273438 48.527344 45.480469 C 48.441406 45.53125 48.351562 45.582031 48.265625 45.632812 C 47.890625 45.917969 47.628906 46.222656 47.332031 46.699219 C 47.226562 47.132812 47.226562 47.132812 47.210938 47.511719 C 47.132812 47.511719 47.054688 47.511719 46.972656 47.511719 C 46.933594 47.714844 46.894531 47.914062 46.851562 48.121094 C 46.734375 48.121094 46.617188 48.121094 46.492188 48.121094 C 46.535156 48.304688 46.535156 48.304688 46.578125 48.488281 C 46.589844 48.636719 46.601562 48.78125 46.613281 48.933594 C 46.457031 49.265625 46.457031 49.265625 46.253906 49.542969 C 46.175781 49.675781 46.097656 49.8125 46.015625 49.949219 C 45.976562 49.816406 45.9375 49.679688 45.894531 49.542969 C 46.007812 49.011719 46.007812 49.011719 46.136719 48.527344 C 45.976562 48.730469 45.820312 48.929688 45.65625 49.136719 C 45.839844 48.4375 46.09375 47.90625 46.375 47.308594 C 46.496094 46.972656 46.613281 46.632812 46.734375 46.292969 C 46.875 45.941406 47.015625 45.589844 47.160156 45.242188 C 47.230469 45.066406 47.300781 44.890625 47.375 44.710938 C 47.652344 44.070312 47.957031 43.660156 48.339844 43.210938 C 48.433594 43.097656 48.527344 42.988281 48.621094 42.871094 C 48.707031 42.796875 48.796875 42.71875 48.882812 42.640625 Z M 48.882812 42.640625 "/>
<path style=" stroke:none;fill-rule:nonzero;fill:rgb(45.882353%,50.196081%,51.764709%);fill-opacity:1;" d="M 47.570312 86.496094 C 47.570312 86.898438 47.570312 87.300781 47.570312 87.714844 C 47.453125 87.78125 47.332031 87.851562 47.210938 87.917969 C 47.328125 88.054688 47.449219 88.1875 47.570312 88.324219 C 47.667969 88.71875 47.667969 88.71875 47.6875 89.136719 C 47.449219 89.75 47.351562 89.875 46.972656 90.152344 C 46.972656 90.285156 46.972656 90.421875 46.972656 90.558594 C 46.8125 90.558594 46.65625 90.558594 46.492188 90.558594 C 46.492188 90.425781 46.492188 90.289062 46.492188 90.152344 C 46.296875 90.085938 46.097656 90.019531 45.894531 89.949219 C 45.894531 89.613281 45.894531 89.277344 45.894531 88.933594 C 46.09375 88.933594 46.289062 88.933594 46.492188 88.933594 C 46.4375 88.851562 46.378906 88.765625 46.320312 88.679688 C 46.109375 88.273438 46.042969 88.054688 46.015625 87.511719 C 46.113281 87.003906 46.207031 86.761719 46.457031 86.433594 C 46.851562 86.234375 47.171875 86.367188 47.570312 86.496094 Z M 46.851562 88.730469 C 46.8125 88.863281 46.773438 89 46.734375 89.136719 C 46.8125 89.136719 46.890625 89.136719 46.972656 89.136719 C 46.933594 89.003906 46.894531 88.867188 46.851562 88.730469 Z M 46.851562 88.730469 "/>
<path style=" stroke:none;fill-rule:nonzero;fill:rgb(55.29412%,58.039218%,59.215689%);fill-opacity:1;" d="M 62.269531 86.496094 C 62.742188 86.613281 63.066406 86.863281 63.464844 87.308594 C 63.484375 86.886719 63.484375 86.886719 63.347656 86.496094 C 63.582031 86.496094 63.820312 86.496094 64.0625 86.496094 C 64.023438 87.636719 63.984375 88.777344 63.945312 89.949219 C 63.347656 89.746094 63.347656 89.746094 63.070312 89.125 C 63.003906 88.925781 62.9375 88.730469 62.867188 88.527344 C 62.867188 88.996094 62.867188 89.464844 62.867188 89.949219 C 62.511719 90.152344 62.511719 90.152344 62.25 89.960938 C 62.140625 89.855469 62.140625 89.855469 62.03125 89.746094 C 62.054688 89.554688 62.078125 89.359375 62.097656 89.164062 C 62.1875 88.546875 62.1875 88.546875 62.03125 88.121094 C 62.074219 87.726562 62.074219 87.726562 62.144531 87.285156 C 62.167969 87.136719 62.191406 86.988281 62.214844 86.839844 C 62.234375 86.726562 62.25 86.613281 62.269531 86.496094 Z M 62.269531 86.496094 "/>
<path style=" stroke:none;fill-rule:nonzero;fill:rgb(0.392157%,58.823532%,75.686276%);fill-opacity:1;" d="M 65.976562 74.519531 C 66.175781 74.574219 66.375 74.644531 66.574219 74.722656 C 66.574219 74.949219 66.574219 74.949219 66.570312 75.1875 C 66.570312 75.886719 66.566406 76.585938 66.566406 77.285156 C 66.566406 77.527344 66.5625 77.765625 66.5625 78.015625 C 66.5625 78.25 66.5625 78.484375 66.5625 78.726562 C 66.5625 78.941406 66.5625 79.15625 66.558594 79.378906 C 66.574219 80.007812 66.625 80.601562 66.691406 81.21875 C 66.410156 81.34375 66.410156 81.34375 66.09375 81.421875 C 65.855469 81.015625 65.855469 81.015625 65.828125 80.394531 C 65.828125 80.003906 65.828125 80.003906 65.828125 79.605469 C 65.828125 79.46875 65.828125 79.328125 65.828125 79.1875 C 65.828125 78.894531 65.832031 78.597656 65.832031 78.304688 C 65.835938 77.855469 65.835938 77.40625 65.835938 76.957031 C 65.839844 74.75 65.839844 74.75 65.976562 74.519531 Z M 65.976562 74.519531 "/>
<path style=" stroke:none;fill-rule:nonzero;fill:rgb(53.725493%,56.862748%,58.039218%);fill-opacity:1;" d="M 65.140625 86.699219 C 65.496094 86.699219 65.847656 86.699219 66.214844 86.699219 C 66.421875 87.515625 66.589844 88.265625 66.558594 89.164062 C 66.394531 89.753906 66.207031 89.90625 65.855469 90.152344 C 65.402344 90.089844 65.402344 90.089844 65.019531 89.949219 C 65.019531 89.613281 65.019531 89.277344 65.019531 88.933594 C 65.175781 88.933594 65.335938 88.933594 65.496094 88.933594 C 65.496094 89.066406 65.496094 89.203125 65.496094 89.339844 C 65.578125 89.207031 65.65625 89.070312 65.738281 88.933594 C 65.441406 88.734375 65.441406 88.734375 65.140625 88.527344 C 65.140625 88.394531 65.140625 88.261719 65.140625 88.121094 C 65.0625 88.054688 64.980469 87.988281 64.902344 87.917969 C 64.902344 87.652344 64.902344 87.382812 64.902344 87.105469 C 64.980469 87.105469 65.058594 87.105469 65.140625 87.105469 C 65.140625 86.972656 65.140625 86.839844 65.140625 86.699219 Z M 65.617188 87.308594 C 65.617188 87.511719 65.617188 87.710938 65.617188 87.917969 C 65.855469 87.851562 66.089844 87.785156 66.335938 87.714844 C 66.335938 87.648438 66.335938 87.582031 66.335938 87.511719 C 65.980469 87.414062 65.980469 87.414062 65.617188 87.308594 Z M 65.617188 87.308594 "/>
<path style=" stroke:none;fill-rule:nonzero;fill:rgb(63.137257%,64.705884%,65.490198%);fill-opacity:1;" d="M 52.113281 86.496094 C 52.128906 88.238281 52.128906 88.238281 51.992188 88.933594 C 52.085938 88.976562 52.179688 89.019531 52.277344 89.0625 C 52.589844 89.339844 52.589844 89.339844 52.746094 89.976562 C 52.789062 90.261719 52.789062 90.261719 52.828125 90.558594 C 52.710938 90.558594 52.59375 90.558594 52.46875 90.558594 C 52.46875 90.425781 52.46875 90.289062 52.46875 90.152344 C 52.113281 90.21875 51.761719 90.285156 51.394531 90.355469 C 51.207031 89.089844 51.132812 88.003906 51.15625 86.699219 C 51.53125 86.347656 51.699219 86.246094 52.113281 86.496094 Z M 52.113281 86.496094 "/>
<path style=" stroke:none;fill-rule:nonzero;fill:rgb(0%,14.901961%,18.82353%);fill-opacity:1;" d="M 59.640625 75.328125 C 59.523438 75.464844 59.40625 75.597656 59.28125 75.734375 C 59.324219 75.9375 59.363281 76.136719 59.402344 76.34375 C 59.40625 76.820312 59.40625 77.292969 59.402344 77.765625 C 59.164062 77.96875 59.164062 77.96875 58.925781 78.171875 C 59.003906 78.574219 59.082031 78.976562 59.164062 79.390625 C 59.085938 79.457031 59.003906 79.523438 58.925781 79.59375 C 58.886719 79.460938 58.84375 79.324219 58.804688 79.1875 C 58.6875 79.457031 58.566406 79.722656 58.445312 80 C 58.316406 79.332031 58.351562 79.042969 58.445312 78.375 C 58.328125 78.441406 58.210938 78.507812 58.085938 78.578125 C 58.035156 76.8125 58.035156 76.8125 58.445312 75.9375 C 58.828125 75.289062 59.109375 75.269531 59.640625 75.328125 Z M 58.566406 76.546875 C 58.605469 76.75 58.644531 76.949219 58.683594 77.15625 C 58.683594 76.957031 58.683594 76.753906 58.683594 76.546875 C 58.644531 76.546875 58.605469 76.546875 58.566406 76.546875 Z M 58.683594 78.375 C 58.804688 78.984375 58.804688 78.984375 58.804688 78.984375 Z M 58.683594 78.375 "/>
<path style=" stroke:none;fill-rule:nonzero;fill:rgb(0%,14.509805%,18.82353%);fill-opacity:1;" d="M 59.761719 75.53125 C 60.34375 76.292969 60.34375 76.292969 60.476562 76.75 C 60.496094 77.144531 60.503906 77.539062 60.507812 77.929688 C 60.511719 78.246094 60.511719 78.246094 60.515625 78.570312 C 60.472656 79.269531 60.359375 79.640625 60.121094 80.203125 C 59.710938 80.722656 59.300781 80.640625 58.804688 80.609375 C 58.84375 80.476562 58.882812 80.339844 58.925781 80.203125 C 59.042969 80.269531 59.160156 80.335938 59.28125 80.40625 C 59.296875 80.289062 59.3125 80.171875 59.328125 80.050781 C 59.402344 79.59375 59.402344 79.59375 59.523438 79.21875 C 59.652344 78.734375 59.6875 78.347656 59.714844 77.816406 C 59.730469 77.574219 59.730469 77.574219 59.742188 77.324219 C 59.75 77.203125 59.753906 77.082031 59.761719 76.953125 C 59.683594 76.953125 59.601562 76.953125 59.523438 76.953125 C 59.625 75.988281 59.625 75.988281 59.761719 75.53125 Z M 59.640625 76.34375 C 59.679688 76.546875 59.71875 76.746094 59.761719 76.953125 C 59.761719 76.753906 59.761719 76.550781 59.761719 76.34375 C 59.722656 76.34375 59.683594 76.34375 59.640625 76.34375 Z M 59.878906 76.953125 C 60 77.765625 60 77.765625 60 77.765625 Z M 59.878906 78.375 C 60 79.1875 60 79.1875 60 79.1875 Z M 59.878906 78.375 "/>
<path style=" stroke:none;fill-rule:nonzero;fill:rgb(48.627451%,52.549022%,54.11765%);fill-opacity:1;" d="M 62.03125 30.050781 C 61.953125 30.183594 61.875 30.320312 61.792969 30.457031 C 61.910156 30.589844 62.03125 30.726562 62.152344 30.863281 C 62.078125 30.890625 62.007812 30.917969 61.933594 30.945312 C 61.789062 31 61.789062 31 61.644531 31.054688 C 61.550781 31.089844 61.453125 31.125 61.359375 31.160156 C 59.746094 31.769531 59.746094 31.769531 58.238281 32.863281 C 57.851562 33.199219 57.445312 33.46875 57.042969 33.742188 C 56.964844 33.796875 56.886719 33.851562 56.804688 33.90625 C 56.441406 34.152344 56.082031 34.378906 55.695312 34.519531 C 55.957031 34.03125 56.199219 33.75 56.550781 33.472656 C 56.644531 33.394531 56.742188 33.316406 56.84375 33.234375 C 56.941406 33.15625 57.042969 33.078125 57.144531 32.996094 C 57.292969 32.875 57.292969 32.875 57.441406 32.753906 C 59.050781 31.472656 59.050781 31.472656 59.761719 31.472656 C 59.800781 31.269531 59.839844 31.070312 59.878906 30.863281 C 60.144531 30.675781 60.144531 30.675781 60.46875 30.53125 C 61.570312 30.035156 61.570312 30.035156 62.03125 30.050781 Z M 62.03125 30.050781 "/>
<path style=" stroke:none;fill-rule:nonzero;fill:rgb(2.352941%,54.901963%,70.19608%);fill-opacity:1;" d="M 63.464844 55.835938 C 63.425781 55.949219 63.386719 56.0625 63.347656 56.179688 C 63.210938 56.710938 63.207031 57.09375 63.226562 57.664062 C 63.164062 57.714844 63.101562 57.761719 63.039062 57.8125 C 62.53125 58.230469 62.113281 58.675781 61.671875 59.289062 C 61.59375 59.289062 61.515625 59.289062 61.433594 59.289062 C 61.355469 59.691406 61.277344 60.09375 61.195312 60.507812 C 61.144531 60.382812 61.089844 60.257812 61.039062 60.125 C 60.835938 59.652344 60.835938 59.652344 60.476562 59.289062 C 60.535156 59.222656 60.59375 59.152344 60.652344 59.082031 C 60.917969 58.765625 61.183594 58.449219 61.449219 58.132812 C 61.539062 58.027344 61.632812 57.917969 61.726562 57.808594 C 62.136719 57.316406 62.539062 56.824219 62.917969 56.265625 C 63.226562 55.835938 63.226562 55.835938 63.464844 55.835938 Z M 63.464844 55.835938 "/>
<path style=" stroke:none;fill-rule:nonzero;fill:rgb(58.823532%,61.176473%,61.960787%);fill-opacity:1;" d="M 55.695312 86.496094 C 56.210938 86.496094 56.722656 86.496094 57.25 86.496094 C 57.25 86.765625 57.25 87.035156 57.25 87.308594 C 57.136719 87.375 57.136719 87.375 57.015625 87.441406 C 56.738281 87.683594 56.738281 87.683594 56.699219 88.242188 C 56.691406 88.546875 56.691406 88.546875 56.683594 88.859375 C 56.675781 89.0625 56.667969 89.265625 56.664062 89.476562 C 56.660156 89.632812 56.65625 89.789062 56.652344 89.949219 C 56.496094 89.949219 56.335938 89.949219 56.175781 89.949219 C 56.175781 89.078125 56.175781 88.207031 56.175781 87.308594 C 56.015625 87.308594 55.859375 87.308594 55.695312 87.308594 C 55.695312 87.042969 55.695312 86.773438 55.695312 86.496094 Z M 55.695312 86.496094 "/>
<path style=" stroke:none;fill-rule:nonzero;fill:rgb(0%,12.54902%,16.078432%);fill-opacity:1;" d="M 49.242188 77.15625 C 49.480469 77.96875 49.480469 77.96875 49.480469 78.375 C 49.5625 78.441406 49.640625 78.507812 49.722656 78.578125 C 49.734375 78.972656 49.742188 79.367188 49.75 79.757812 C 49.757812 79.976562 49.761719 80.195312 49.769531 80.421875 C 49.722656 81.015625 49.722656 81.015625 49.503906 81.394531 C 49.15625 81.699219 48.910156 81.695312 48.527344 81.625 C 48.445312 81.492188 48.367188 81.355469 48.285156 81.21875 C 48.3125 80.894531 48.335938 80.570312 48.371094 80.246094 C 48.441406 79.359375 48.414062 78.457031 48.40625 77.5625 C 48.484375 77.628906 48.5625 77.699219 48.644531 77.765625 C 48.644531 78.90625 48.644531 80.042969 48.644531 81.21875 C 48.84375 81.21875 49.039062 81.21875 49.242188 81.21875 C 49.242188 79.878906 49.242188 78.539062 49.242188 77.15625 Z M 49.242188 77.15625 "/>
<path style=" stroke:none;fill-rule:nonzero;fill:rgb(0.784314%,13.333334%,16.862746%);fill-opacity:1;" d="M 55.324219 86.6875 C 55.40625 86.824219 55.492188 86.964844 55.578125 87.105469 C 55.617188 86.972656 55.65625 86.839844 55.695312 86.699219 C 55.695312 86.902344 55.695312 87.101562 55.695312 87.308594 C 55.855469 87.308594 56.011719 87.308594 56.175781 87.308594 C 56.179688 87.714844 56.179688 88.121094 56.175781 88.527344 C 55.976562 88.867188 55.722656 88.804688 55.449219 88.84375 C 55.160156 88.890625 55.160156 88.890625 54.859375 88.933594 C 54.859375 88.195312 54.859375 87.460938 54.859375 86.699219 C 54.664062 86.699219 54.464844 86.699219 54.261719 86.699219 C 54.261719 86.632812 54.261719 86.566406 54.261719 86.496094 C 54.738281 86.269531 54.902344 86.207031 55.324219 86.6875 Z M 55.097656 86.902344 C 55.058594 87.238281 55.019531 87.574219 54.980469 87.917969 C 55.097656 88.019531 55.097656 88.019531 55.21875 88.121094 C 55.21875 87.71875 55.21875 87.316406 55.21875 86.902344 C 55.179688 86.902344 55.140625 86.902344 55.097656 86.902344 Z M 55.457031 87.308594 C 55.578125 87.714844 55.578125 87.714844 55.578125 87.714844 Z M 55.457031 87.308594 "/>
<path style=" stroke:none;fill-rule:nonzero;fill:rgb(0%,19.215687%,24.705882%);fill-opacity:1;" d="M 66.933594 59.695312 C 67.011719 59.761719 67.089844 59.828125 67.171875 59.898438 C 67.171875 61.773438 67.171875 63.652344 67.171875 65.582031 C 67.054688 65.582031 66.933594 65.582031 66.8125 65.582031 C 66.808594 64.777344 66.808594 63.972656 66.804688 63.164062 C 66.804688 62.890625 66.804688 62.617188 66.804688 62.34375 C 66.800781 61.949219 66.800781 61.554688 66.800781 61.160156 C 66.800781 60.925781 66.800781 60.6875 66.800781 60.445312 C 66.8125 59.898438 66.8125 59.898438 66.933594 59.695312 Z M 66.933594 59.695312 "/>
<path style=" stroke:none;fill-rule:nonzero;fill:rgb(0%,19.215687%,24.705882%);fill-opacity:1;" d="M 66.933594 36.140625 C 67.011719 36.210938 67.089844 36.277344 67.171875 36.34375 C 67.179688 37.210938 67.183594 38.078125 67.1875 38.945312 C 67.1875 39.195312 67.191406 39.441406 67.191406 39.695312 C 67.191406 39.929688 67.195312 40.167969 67.195312 40.410156 C 67.195312 40.628906 67.195312 40.847656 67.199219 41.070312 C 67.171875 41.625 67.171875 41.625 66.933594 42.234375 C 66.714844 41.863281 66.796875 41.273438 66.796875 40.773438 C 66.796875 40.519531 66.796875 40.265625 66.796875 40 C 66.796875 39.867188 66.796875 39.734375 66.796875 39.597656 C 66.796875 39.191406 66.796875 38.78125 66.796875 38.375 C 66.796875 38.117188 66.796875 37.863281 66.796875 37.601562 C 66.796875 37.246094 66.796875 37.246094 66.796875 36.886719 C 66.8125 36.34375 66.8125 36.34375 66.933594 36.140625 Z M 66.933594 36.140625 "/>
<path style=" stroke:none;fill-rule:nonzero;fill:rgb(32.549021%,39.215687%,41.568628%);fill-opacity:1;" d="M 47.210938 46.089844 C 47.210938 46.558594 47.210938 47.03125 47.210938 47.511719 C 47.132812 47.511719 47.054688 47.511719 46.972656 47.511719 C 46.933594 47.714844 46.894531 47.914062 46.851562 48.121094 C 46.734375 48.121094 46.617188 48.121094 46.492188 48.121094 C 46.535156 48.304688 46.535156 48.304688 46.578125 48.488281 C 46.589844 48.636719 46.601562 48.78125 46.613281 48.933594 C 46.457031 49.265625 46.457031 49.265625 46.253906 49.542969 C 46.175781 49.675781 46.097656 49.8125 46.015625 49.949219 C 45.976562 49.816406 45.9375 49.679688 45.894531 49.542969 C 46.007812 49.011719 46.007812 49.011719 46.136719 48.527344 C 45.976562 48.730469 45.820312 48.929688 45.65625 49.136719 C 45.839844 48.4375 46.09375 47.90625 46.375 47.308594 C 46.46875 47.035156 46.46875 47.035156 46.570312 46.75 C 46.761719 46.21875 46.84375 46.089844 47.210938 46.089844 Z M 47.210938 46.089844 "/>
<path style=" stroke:none;fill-rule:nonzero;fill:rgb(0%,12.54902%,16.078432%);fill-opacity:1;" d="M 50.320312 76.472656 C 50.625 76.832031 50.6875 77.171875 50.796875 77.765625 C 50.875 77.765625 50.953125 77.765625 51.035156 77.765625 C 51.035156 78.773438 51.035156 79.777344 51.035156 80.8125 C 50.957031 80.878906 50.878906 80.945312 50.796875 81.015625 C 50.789062 80.886719 50.78125 80.761719 50.773438 80.628906 C 50.765625 80.464844 50.753906 80.296875 50.746094 80.125 C 50.734375 79.960938 50.726562 79.796875 50.714844 79.628906 C 50.691406 79.179688 50.691406 79.179688 50.558594 78.78125 C 50.542969 78.550781 50.527344 78.320312 50.511719 78.082031 C 50.472656 77.304688 50.472656 77.304688 50.078125 76.75 C 50.078125 77.6875 50.078125 78.628906 50.078125 79.59375 C 49.839844 79.1875 49.839844 79.1875 49.816406 78.570312 C 49.820312 78.332031 49.824219 78.089844 49.824219 77.84375 C 49.828125 77.601562 49.828125 77.359375 49.832031 77.113281 C 49.835938 76.925781 49.835938 76.738281 49.839844 76.546875 C 50.078125 76.34375 50.078125 76.34375 50.320312 76.472656 Z M 50.320312 76.472656 "/>
<path style=" stroke:none;fill-rule:nonzero;fill:rgb(71.372551%,71.372551%,71.764708%);fill-opacity:1;" d="M 58.804688 86.496094 C 58.804688 86.699219 58.804688 86.898438 58.804688 87.105469 C 58.726562 87.105469 58.648438 87.105469 58.566406 87.105469 C 58.597656 87.273438 58.597656 87.273438 58.628906 87.445312 C 58.695312 87.992188 58.671875 88.433594 58.632812 88.984375 C 58.621094 89.164062 58.609375 89.347656 58.597656 89.535156 C 58.585938 89.671875 58.574219 89.808594 58.566406 89.949219 C 58.40625 89.949219 58.25 89.949219 58.085938 89.949219 C 58.085938 88.808594 58.085938 87.671875 58.085938 86.496094 C 58.445312 86.292969 58.445312 86.292969 58.804688 86.496094 Z M 58.804688 86.496094 "/>
<path style=" stroke:none;fill-rule:nonzero;fill:rgb(0%,15.294118%,19.607843%);fill-opacity:1;" d="M 50.796875 75.53125 C 51.035156 76.140625 51.035156 76.140625 50.992188 76.585938 C 50.964844 76.707031 50.941406 76.828125 50.917969 76.953125 C 50.835938 76.6875 50.757812 76.417969 50.675781 76.140625 C 50.246094 76.273438 50.246094 76.273438 49.839844 76.546875 C 49.785156 76.980469 49.785156 76.980469 49.765625 77.476562 C 49.757812 77.640625 49.75 77.808594 49.738281 77.984375 C 49.734375 78.113281 49.726562 78.242188 49.722656 78.375 C 49.480469 77.765625 49.480469 77.765625 49.421875 77.144531 C 49.394531 76.523438 49.394531 76.523438 49.125 76.140625 C 49.722656 75.300781 50.039062 75.210938 50.796875 75.53125 Z M 50.796875 75.53125 "/>
<path style=" stroke:none;fill-rule:nonzero;fill:rgb(3.921569%,15.686275%,19.215687%);fill-opacity:1;" d="M 52.113281 86.496094 C 52.128906 88.238281 52.128906 88.238281 51.992188 88.933594 C 52.085938 88.976562 52.179688 89.019531 52.277344 89.0625 C 52.589844 89.339844 52.589844 89.339844 52.746094 89.976562 C 52.789062 90.261719 52.789062 90.261719 52.828125 90.558594 C 52.710938 90.558594 52.59375 90.558594 52.46875 90.558594 C 52.46875 90.425781 52.46875 90.289062 52.46875 90.152344 C 52.113281 90.21875 51.761719 90.285156 51.394531 90.355469 C 51.394531 90.222656 51.394531 90.085938 51.394531 89.949219 C 51.710938 89.949219 52.027344 89.949219 52.351562 89.949219 C 52.351562 89.75 52.351562 89.546875 52.351562 89.339844 C 52.152344 89.339844 51.957031 89.339844 51.753906 89.339844 C 51.753906 88.46875 51.753906 87.597656 51.753906 86.699219 C 51.59375 86.632812 51.4375 86.566406 51.273438 86.496094 C 51.648438 86.285156 51.75 86.308594 52.113281 86.496094 Z M 52.113281 86.496094 "/>
<path style=" stroke:none;fill-rule:nonzero;fill:rgb(4.705882%,16.470589%,20%);fill-opacity:1;" d="M 66.933594 49.746094 C 66.972656 49.878906 67.011719 50.015625 67.050781 50.152344 C 66.957031 50.503906 66.957031 50.503906 66.820312 50.886719 C 66.738281 51.113281 66.65625 51.339844 66.574219 51.574219 C 66.496094 51.574219 66.414062 51.574219 66.335938 51.574219 C 66.335938 51.707031 66.335938 51.839844 66.335938 51.980469 C 66.253906 51.980469 66.175781 51.980469 66.09375 51.980469 C 66.09375 52.113281 66.09375 52.246094 66.09375 52.386719 C 66.015625 52.386719 65.9375 52.386719 65.855469 52.386719 C 65.855469 52.519531 65.855469 52.652344 65.855469 52.792969 C 65.777344 52.792969 65.699219 52.792969 65.617188 52.792969 C 65.617188 52.925781 65.617188 53.058594 65.617188 53.199219 C 65.539062 53.199219 65.460938 53.199219 65.378906 53.199219 C 65.378906 53.332031 65.378906 53.464844 65.378906 53.605469 C 65.144531 53.886719 64.90625 54.15625 64.660156 54.417969 C 64.582031 54.347656 64.503906 54.28125 64.421875 54.214844 C 64.488281 54.097656 64.558594 53.984375 64.628906 53.867188 C 64.933594 53.355469 65.238281 52.839844 65.542969 52.324219 C 65.648438 52.144531 65.753906 51.964844 65.863281 51.78125 C 65.964844 51.609375 66.066406 51.4375 66.171875 51.257812 C 66.265625 51.101562 66.359375 50.941406 66.457031 50.777344 C 66.710938 50.347656 66.710938 50.347656 66.933594 49.746094 Z M 66.933594 49.746094 "/>
<path style=" stroke:none;fill-rule:nonzero;fill:rgb(6.666667%,18.039216%,21.176471%);fill-opacity:1;" d="M 49.839844 87.511719 C 49.960938 87.714844 49.960938 87.714844 49.984375 88.210938 C 49.960938 88.730469 49.960938 88.730469 49.722656 89.136719 C 49.421875 89.1875 49.421875 89.1875 49.125 89.136719 C 49.042969 89.003906 48.964844 88.867188 48.882812 88.730469 C 48.914062 88.109375 48.914062 88.109375 49.003906 87.511719 C 49.324219 87.242188 49.5 87.363281 49.839844 87.511719 Z M 49.363281 88.324219 C 49.402344 88.457031 49.441406 88.59375 49.480469 88.730469 C 49.523438 88.597656 49.5625 88.464844 49.601562 88.324219 C 49.523438 88.324219 49.445312 88.324219 49.363281 88.324219 Z M 49.363281 88.324219 "/>
<path style=" stroke:none;fill-rule:nonzero;fill:rgb(0%,13.725491%,17.647059%);fill-opacity:1;" d="M 64.902344 75.734375 C 65.257812 76.34375 65.257812 76.34375 65.300781 76.769531 C 65.296875 76.925781 65.296875 77.085938 65.292969 77.25 C 65.292969 77.421875 65.292969 77.59375 65.289062 77.769531 C 65.289062 77.949219 65.285156 78.128906 65.28125 78.3125 C 65.277344 78.585938 65.277344 78.585938 65.277344 78.863281 C 65.273438 79.308594 65.265625 79.753906 65.257812 80.203125 C 65.140625 80.203125 65.023438 80.203125 64.902344 80.203125 C 64.902344 78.730469 64.902344 77.253906 64.902344 75.734375 Z M 64.902344 75.734375 "/>
<path style=" stroke:none;fill-rule:nonzero;fill:rgb(0.392157%,62.352943%,80.000001%);fill-opacity:1;" d="M 66.933594 72.488281 C 66.933594 72.890625 66.933594 73.292969 66.933594 73.707031 C 66.65625 73.839844 66.378906 73.972656 66.09375 74.113281 C 65.976562 73.910156 65.859375 73.710938 65.738281 73.503906 C 65.835938 73.007812 65.835938 73.007812 65.976562 72.488281 C 66.371094 72.265625 66.539062 72.324219 66.933594 72.488281 Z M 66.574219 72.691406 C 66.691406 73.503906 66.691406 73.503906 66.691406 73.503906 Z M 66.574219 72.691406 "/>
<path style=" stroke:none;fill-rule:nonzero;fill:rgb(0%,14.117648%,18.039216%);fill-opacity:1;" d="M 51.632812 76.140625 C 52.007812 77.410156 52.007812 77.410156 52.003906 78.289062 C 52.003906 78.46875 52.003906 78.652344 52.003906 78.839844 C 52 79.03125 52 79.21875 52 79.417969 C 52 79.609375 52 79.800781 51.996094 79.996094 C 51.996094 80.472656 51.996094 80.945312 51.992188 81.421875 C 51.914062 81.421875 51.835938 81.421875 51.753906 81.421875 C 51.660156 80.726562 51.621094 80.085938 51.621094 79.375 C 51.621094 79.183594 51.621094 78.996094 51.621094 78.800781 C 51.625 78.605469 51.625 78.410156 51.625 78.210938 C 51.625 78.011719 51.628906 77.8125 51.628906 77.609375 C 51.628906 77.121094 51.632812 76.628906 51.632812 76.140625 Z M 51.632812 76.140625 "/>
<path style=" stroke:none;fill-rule:nonzero;fill:rgb(25.490198%,33.333334%,35.686275%);fill-opacity:1;" d="M 48.167969 43.453125 C 48.167969 44.0625 48.167969 44.0625 48.046875 44.46875 C 47.96875 44.46875 47.890625 44.46875 47.808594 44.46875 C 47.769531 44.734375 47.730469 45.003906 47.6875 45.277344 C 47.769531 45.210938 47.847656 45.144531 47.929688 45.074219 C 47.96875 45.277344 48.007812 45.476562 48.046875 45.683594 C 47.691406 46.1875 47.691406 46.1875 47.332031 46.699219 C 47.292969 46.5 47.25 46.296875 47.210938 46.089844 C 47.09375 46.023438 46.972656 45.957031 46.851562 45.886719 C 46.96875 45.625 47.082031 45.363281 47.195312 45.101562 C 47.261719 44.957031 47.324219 44.808594 47.390625 44.660156 C 47.628906 44.136719 47.839844 43.820312 48.167969 43.453125 Z M 48.167969 43.453125 "/>
<path style=" stroke:none;fill-rule:nonzero;fill:rgb(37.254903%,43.137255%,45.09804%);fill-opacity:1;" d="M 62.03125 30.050781 C 61.953125 30.183594 61.875 30.320312 61.792969 30.457031 C 61.910156 30.589844 62.03125 30.726562 62.152344 30.863281 C 62.078125 30.890625 62.007812 30.917969 61.933594 30.945312 C 61.789062 31 61.789062 31 61.644531 31.054688 C 61.503906 31.105469 61.503906 31.105469 61.359375 31.160156 C 61.179688 31.230469 61.003906 31.304688 60.828125 31.390625 C 60.464844 31.519531 60.125 31.375 59.761719 31.269531 C 59.878906 30.863281 59.878906 30.863281 60.144531 30.695312 C 60.253906 30.648438 60.359375 30.597656 60.46875 30.546875 C 61.558594 30.035156 61.558594 30.035156 62.03125 30.050781 Z M 62.03125 30.050781 "/>
<path style=" stroke:none;fill-rule:nonzero;fill:rgb(3.529412%,15.294118%,18.82353%);fill-opacity:1;" d="M 50.320312 86.496094 C 50.320312 86.632812 50.320312 86.765625 50.320312 86.902344 C 50.398438 86.902344 50.476562 86.902344 50.558594 86.902344 C 50.707031 87.410156 50.691406 87.761719 50.691406 88.324219 C 50.691406 88.503906 50.691406 88.683594 50.691406 88.871094 C 50.675781 89.339844 50.675781 89.339844 50.558594 89.746094 C 50.398438 89.679688 50.242188 89.613281 50.078125 89.542969 C 50.160156 89.34375 50.238281 89.140625 50.320312 88.933594 C 50.359375 88.28125 50.351562 87.851562 50.199219 87.246094 C 49.828125 86.714844 49.480469 86.753906 49.003906 86.699219 C 49.503906 86.132812 49.738281 86.335938 50.320312 86.496094 Z M 50.320312 86.496094 "/>
<path style=" stroke:none;fill-rule:nonzero;fill:rgb(0%,14.509805%,18.82353%);fill-opacity:1;" d="M 43.746094 73.503906 C 43.785156 73.703125 43.824219 73.90625 43.863281 74.113281 C 43.703125 74.527344 43.703125 74.527344 43.46875 74.960938 C 43.394531 75.105469 43.316406 75.253906 43.238281 75.402344 C 43.027344 75.734375 43.027344 75.734375 42.789062 75.734375 C 42.710938 76.070312 42.632812 76.40625 42.550781 76.75 C 42.429688 76.550781 42.3125 76.347656 42.191406 76.140625 C 42.710938 75.261719 43.226562 74.382812 43.746094 73.503906 Z M 43.746094 73.503906 "/>
<path style=" stroke:none;fill-rule:nonzero;fill:rgb(5.882353%,17.254902%,20.392157%);fill-opacity:1;" d="M 60.121094 87.308594 C 60.433594 87.386719 60.433594 87.386719 60.71875 87.511719 C 60.789062 88.074219 60.835938 88.558594 60.835938 89.136719 C 60.492188 89.164062 60.492188 89.164062 60.121094 89.136719 C 59.878906 88.730469 59.878906 88.730469 59.851562 88.222656 C 59.878906 87.714844 59.878906 87.714844 60.121094 87.308594 Z M 60.238281 87.714844 C 60.238281 88.050781 60.238281 88.386719 60.238281 88.730469 C 60.316406 88.730469 60.398438 88.730469 60.476562 88.730469 C 60.4375 88.394531 60.398438 88.0625 60.359375 87.714844 C 60.320312 87.714844 60.28125 87.714844 60.238281 87.714844 Z M 60.238281 87.714844 "/>
<path style=" stroke:none;fill-rule:nonzero;fill:rgb(0%,40.784314%,52.549022%);fill-opacity:1;" d="M 53.726562 75.308594 C 53.90625 75.3125 53.90625 75.3125 54.089844 75.316406 C 54.210938 75.320312 54.332031 75.320312 54.457031 75.324219 C 54.597656 75.328125 54.597656 75.328125 54.742188 75.328125 C 54.742188 75.398438 54.742188 75.464844 54.742188 75.53125 C 54.589844 75.558594 54.433594 75.582031 54.277344 75.609375 C 53.863281 75.671875 53.863281 75.671875 53.546875 76.140625 C 53.527344 76.765625 53.527344 76.765625 53.546875 77.460938 C 53.5625 78.179688 53.5625 78.179688 53.546875 78.78125 C 53.46875 78.914062 53.386719 79.050781 53.308594 79.1875 C 53.304688 78.582031 53.300781 77.976562 53.300781 77.375 C 53.296875 77.199219 53.296875 77.027344 53.296875 76.851562 C 53.296875 76.6875 53.296875 76.523438 53.296875 76.351562 C 53.292969 76.199219 53.292969 76.046875 53.292969 75.890625 C 53.316406 75.3125 53.382812 75.332031 53.726562 75.308594 Z M 53.726562 75.308594 "/>
<path style=" stroke:none;fill-rule:nonzero;fill:rgb(0%,17.254902%,22.352941%);fill-opacity:1;" d="M 48.40625 77.5625 C 48.484375 77.628906 48.5625 77.699219 48.644531 77.765625 C 48.644531 78.90625 48.644531 80.042969 48.644531 81.21875 C 48.765625 81.285156 48.882812 81.351562 49.003906 81.421875 C 48.78125 81.546875 48.78125 81.546875 48.527344 81.625 C 48.445312 81.492188 48.367188 81.355469 48.285156 81.21875 C 48.3125 80.894531 48.335938 80.570312 48.371094 80.246094 C 48.441406 79.359375 48.414062 78.457031 48.40625 77.5625 Z M 48.40625 77.5625 "/>
<path style=" stroke:none;fill-rule:nonzero;fill:rgb(0%,16.078432%,20.392157%);fill-opacity:1;" d="M 60.359375 49.339844 C 60.398438 49.472656 60.4375 49.609375 60.476562 49.746094 C 60.558594 49.746094 60.636719 49.746094 60.71875 49.746094 C 60.71875 50.550781 60.71875 51.355469 60.71875 52.183594 C 60.597656 52.183594 60.480469 52.183594 60.359375 52.183594 C 60.359375 51.246094 60.359375 50.304688 60.359375 49.339844 Z M 60.359375 49.339844 "/>
<path style=" stroke:none;fill-rule:nonzero;fill:rgb(50.196081%,53.333336%,54.509807%);fill-opacity:1;" d="M 48.40625 43.046875 C 48.5625 43.046875 48.722656 43.046875 48.882812 43.046875 C 48.789062 43.539062 48.789062 43.539062 48.644531 44.0625 C 48.527344 44.128906 48.410156 44.195312 48.285156 44.265625 C 48.085938 44.640625 48.085938 44.640625 47.90625 45.089844 C 47.84375 45.238281 47.777344 45.386719 47.714844 45.539062 C 47.667969 45.65625 47.617188 45.769531 47.570312 45.886719 C 47.53125 45.6875 47.492188 45.484375 47.449219 45.277344 C 47.605469 44.835938 47.605469 44.835938 47.808594 44.46875 C 47.886719 44.46875 47.964844 44.46875 48.046875 44.46875 C 48.085938 44.269531 48.121094 44.074219 48.160156 43.871094 C 48.285156 43.25 48.285156 43.25 48.40625 43.046875 Z M 48.40625 43.046875 "/>
<path style=" stroke:none;fill-rule:nonzero;fill:rgb(0%,17.647059%,22.745098%);fill-opacity:1;" d="M 52.710938 73.097656 C 52.75 73.097656 52.789062 73.097656 52.828125 73.097656 C 52.828125 73.632812 52.828125 74.167969 52.828125 74.722656 C 52.59375 74.722656 52.355469 74.722656 52.113281 74.722656 C 52.070312 74.988281 52.03125 75.257812 51.992188 75.53125 C 51.953125 75.265625 51.914062 74.996094 51.871094 74.722656 C 52.109375 74.585938 52.347656 74.453125 52.589844 74.316406 C 52.589844 74.179688 52.589844 74.046875 52.589844 73.910156 C 52.472656 73.839844 52.351562 73.773438 52.230469 73.707031 C 52.390625 73.636719 52.546875 73.570312 52.710938 73.503906 C 52.710938 73.367188 52.710938 73.234375 52.710938 73.097656 Z M 52.710938 73.097656 "/>
<path style=" stroke:none;fill-rule:nonzero;fill:rgb(10.980392%,21.960784%,25.098041%);fill-opacity:1;" d="M 54.742188 34.519531 C 55.054688 34.519531 55.371094 34.519531 55.695312 34.519531 C 55.335938 35.226562 55.03125 35.492188 54.503906 35.734375 C 54.460938 35.601562 54.421875 35.46875 54.382812 35.328125 C 54.460938 35.195312 54.539062 35.0625 54.621094 34.925781 C 54.660156 34.789062 54.699219 34.65625 54.742188 34.519531 Z M 54.742188 34.519531 "/>
<path style=" stroke:none;fill-rule:nonzero;fill:rgb(29.411766%,36.862746%,38.82353%);fill-opacity:1;" d="M 58.804688 86.496094 C 58.804688 86.699219 58.804688 86.898438 58.804688 87.105469 C 58.726562 87.105469 58.648438 87.105469 58.566406 87.105469 C 58.597656 87.273438 58.597656 87.273438 58.628906 87.445312 C 58.695312 87.992188 58.671875 88.433594 58.632812 88.984375 C 58.621094 89.164062 58.609375 89.347656 58.597656 89.535156 C 58.585938 89.671875 58.574219 89.808594 58.566406 89.949219 C 58.527344 89.949219 58.488281 89.949219 58.445312 89.949219 C 58.445312 88.878906 58.445312 87.804688 58.445312 86.699219 C 58.328125 86.632812 58.210938 86.566406 58.085938 86.496094 C 58.445312 86.292969 58.445312 86.292969 58.804688 86.496094 Z M 58.804688 86.496094 "/>
<path style=" stroke:none;fill-rule:nonzero;fill:rgb(3.137255%,16.862746%,20.784314%);fill-opacity:1;" d="M 63.464844 55.835938 C 63.425781 55.949219 63.386719 56.0625 63.347656 56.179688 C 63.210938 56.710938 63.207031 57.09375 63.226562 57.664062 C 62.992188 57.53125 62.753906 57.398438 62.511719 57.257812 C 62.65625 56.507812 62.964844 55.835938 63.464844 55.835938 Z M 63.464844 55.835938 "/>
<path style=" stroke:none;fill-rule:nonzero;fill:rgb(6.666667%,18.039216%,21.176471%);fill-opacity:1;" d="M 60.351562 86.433594 C 60.476562 86.425781 60.605469 86.417969 60.734375 86.410156 C 61.074219 86.496094 61.074219 86.496094 61.300781 86.90625 C 61.34375 87.039062 61.390625 87.171875 61.433594 87.308594 C 61.355469 87.242188 61.277344 87.175781 61.195312 87.105469 C 60.71875 86.835938 60.382812 86.835938 59.878906 86.902344 C 59.585938 87.175781 59.585938 87.175781 59.402344 87.511719 C 59.402344 87.246094 59.402344 86.976562 59.402344 86.699219 C 59.726562 86.425781 59.992188 86.449219 60.351562 86.433594 Z M 60.351562 86.433594 "/>
<path style=" stroke:none;fill-rule:nonzero;fill:rgb(43.921569%,49.019608%,50.588238%);fill-opacity:1;" d="M 61.316406 30.050781 C 61.550781 30.050781 61.789062 30.050781 62.03125 30.050781 C 61.953125 30.183594 61.875 30.320312 61.792969 30.457031 C 61.910156 30.589844 62.03125 30.726562 62.152344 30.863281 C 61.386719 31.3125 61.386719 31.3125 61.023438 31.089844 C 60.960938 31.015625 60.898438 30.941406 60.835938 30.863281 C 60.914062 30.765625 60.996094 30.671875 61.074219 30.570312 C 61.15625 30.464844 61.234375 30.363281 61.316406 30.253906 C 61.316406 30.1875 61.316406 30.121094 61.316406 30.050781 Z M 61.316406 30.050781 "/>
<path style=" stroke:none;fill-rule:nonzero;fill:rgb(5.882353%,17.254902%,20.392157%);fill-opacity:1;" d="M 48.167969 43.453125 C 48.167969 44.0625 48.167969 44.0625 48.046875 44.46875 C 47.96875 44.46875 47.890625 44.46875 47.808594 44.46875 C 47.730469 44.734375 47.652344 45.003906 47.570312 45.277344 C 47.453125 45.277344 47.332031 45.277344 47.210938 45.277344 C 47.6875 43.710938 47.6875 43.710938 48.167969 43.453125 Z M 48.167969 43.453125 "/>
<path style=" stroke:none;fill-rule:nonzero;fill:rgb(0%,12.54902%,16.078432%);fill-opacity:1;" d="M 66.574219 51.574219 C 66.574219 52.183594 66.574219 52.183594 66.339844 52.640625 C 66.238281 52.804688 66.140625 52.96875 66.035156 53.132812 C 65.9375 53.296875 65.835938 53.460938 65.734375 53.632812 C 65.65625 53.757812 65.578125 53.882812 65.496094 54.011719 C 65.417969 53.941406 65.339844 53.875 65.257812 53.808594 C 65.691406 53.070312 66.125 52.332031 66.574219 51.574219 Z M 66.574219 51.574219 "/>
<path style=" stroke:none;fill-rule:nonzero;fill:rgb(41.960785%,47.058824%,48.627451%);fill-opacity:1;" d="M 58.683594 32.285156 C 58.566406 32.691406 58.566406 32.691406 58.289062 32.917969 C 57.96875 33.097656 57.96875 33.097656 57.488281 33.097656 C 57.488281 32.960938 57.488281 32.828125 57.488281 32.691406 C 58.28125 32.054688 58.28125 32.054688 58.683594 32.285156 Z M 58.683594 32.285156 "/>
<path style=" stroke:none;fill-rule:nonzero;fill:rgb(0%,14.901961%,19.215687%);fill-opacity:1;" d="M 43.507812 79.1875 C 43.738281 79.25 43.738281 79.25 43.984375 79.390625 C 44.023438 79.59375 44.0625 79.792969 44.105469 80 C 44.183594 80 44.261719 80 44.34375 80 C 44.34375 80.132812 44.34375 80.269531 44.34375 80.40625 C 43.953125 80.292969 43.753906 80.121094 43.507812 79.59375 C 43.507812 79.460938 43.507812 79.324219 43.507812 79.1875 Z M 43.507812 79.1875 "/>
<path style=" stroke:none;fill-rule:nonzero;fill:rgb(0%,15.686275%,20%);fill-opacity:1;" d="M 56.652344 75.53125 C 56.5625 76.027344 56.5625 76.027344 56.414062 76.546875 C 56.160156 76.714844 56.160156 76.714844 55.9375 76.75 C 56.195312 75.53125 56.195312 75.53125 56.652344 75.53125 Z M 56.652344 75.53125 "/>
<path style=" stroke:none;fill-rule:nonzero;fill:rgb(0%,13.333334%,16.862746%);fill-opacity:1;" d="M 66.335938 72.285156 C 66.628906 72.386719 66.628906 72.386719 66.933594 72.488281 C 66.933594 72.890625 66.933594 73.292969 66.933594 73.707031 C 66.8125 73.707031 66.695312 73.707031 66.574219 73.707031 C 66.613281 73.371094 66.652344 73.035156 66.691406 72.691406 C 66.574219 72.625 66.457031 72.554688 66.335938 72.488281 C 66.335938 72.421875 66.335938 72.351562 66.335938 72.285156 Z M 66.335938 72.285156 "/>
<path style=" stroke:none;fill-rule:nonzero;fill:rgb(47.450981%,51.372552%,52.941179%);fill-opacity:1;" d="M 47.210938 46.089844 C 47.171875 46.472656 47.171875 46.472656 47.089844 46.902344 C 46.972656 47.039062 46.855469 47.171875 46.734375 47.308594 C 46.652344 47.242188 46.574219 47.175781 46.492188 47.105469 C 46.765625 46.089844 46.765625 46.089844 47.210938 46.089844 Z M 47.210938 46.089844 "/>
<path style=" stroke:none;fill-rule:nonzero;fill:rgb(38.431373%,44.313726%,45.882353%);fill-opacity:1;" d="M 49.003906 86.699219 C 48.78125 87.488281 48.78125 87.488281 48.644531 87.714844 C 48.601562 88.1875 48.5625 88.664062 48.527344 89.136719 C 48.488281 89.136719 48.445312 89.136719 48.40625 89.136719 C 48.363281 87.648438 48.363281 87.648438 48.570312 87.003906 C 48.765625 86.699219 48.765625 86.699219 49.003906 86.699219 Z M 49.003906 86.699219 "/>
<path style=" stroke:none;fill-rule:nonzero;fill:rgb(0%,18.82353%,24.313726%);fill-opacity:1;" d="M 71.96875 75.304688 C 72.082031 75.3125 72.195312 75.320312 72.3125 75.328125 C 72.171875 75.519531 72.171875 75.519531 72.027344 75.710938 C 71.71875 76.121094 71.71875 76.121094 71.472656 76.546875 C 71.398438 76.167969 71.398438 76.167969 71.355469 75.734375 C 71.59375 75.328125 71.59375 75.328125 71.96875 75.304688 Z M 71.96875 75.304688 "/>
<path style=" stroke:none;fill-rule:nonzero;fill:rgb(3.921569%,15.686275%,19.215687%);fill-opacity:1;" d="M 54.980469 86.292969 C 55.058594 86.496094 55.136719 86.695312 55.21875 86.902344 C 55.113281 87.449219 55.113281 87.449219 54.980469 87.917969 C 54.941406 87.917969 54.902344 87.917969 54.859375 87.917969 C 54.859375 87.515625 54.859375 87.113281 54.859375 86.699219 C 54.664062 86.699219 54.464844 86.699219 54.261719 86.699219 C 54.261719 86.632812 54.261719 86.566406 54.261719 86.496094 C 54.5 86.429688 54.734375 86.363281 54.980469 86.292969 Z M 54.980469 86.292969 "/>
<path style=" stroke:none;fill-rule:nonzero;fill:rgb(0.392157%,51.372552%,65.882355%);fill-opacity:1;" d="M 45.417969 74.925781 C 45.535156 74.992188 45.65625 75.058594 45.777344 75.125 C 45.363281 75.730469 45.363281 75.730469 44.941406 76.34375 C 45.054688 75.566406 45.089844 75.410156 45.417969 74.925781 Z M 45.417969 74.925781 "/>
<path style=" stroke:none;fill-rule:nonzero;fill:rgb(34.901962%,41.176471%,43.137255%);fill-opacity:1;" d="M 47.003906 86.472656 C 47.105469 86.585938 47.105469 86.585938 47.210938 86.699219 C 47.042969 86.789062 47.042969 86.789062 46.875 86.878906 C 46.480469 87.082031 46.480469 87.082031 46.136719 87.511719 C 46.164062 87.132812 46.164062 87.132812 46.253906 86.699219 C 46.550781 86.320312 46.652344 86.242188 47.003906 86.472656 Z M 47.003906 86.472656 "/>
<path style=" stroke:none;fill-rule:nonzero;fill:rgb(0%,14.901961%,19.215687%);fill-opacity:1;" d="M 70.160156 79.1875 C 70.277344 79.1875 70.394531 79.1875 70.519531 79.1875 C 70.476562 79.523438 70.4375 79.859375 70.398438 80.203125 C 70.203125 80.136719 70.003906 80.070312 69.800781 80 C 69.800781 79.867188 69.800781 79.730469 69.800781 79.59375 C 69.917969 79.527344 70.039062 79.460938 70.160156 79.390625 C 70.160156 79.324219 70.160156 79.257812 70.160156 79.1875 Z M 70.160156 79.1875 "/>
<path style=" stroke:none;fill-rule:nonzero;fill:rgb(0%,36.862746%,47.450981%);fill-opacity:1;" d="M 53.425781 75.328125 C 53.859375 75.328125 54.292969 75.328125 54.742188 75.328125 C 54.742188 75.398438 54.742188 75.464844 54.742188 75.53125 C 54.589844 75.558594 54.433594 75.582031 54.277344 75.609375 C 53.863281 75.671875 53.863281 75.671875 53.546875 76.140625 C 53.507812 75.875 53.46875 75.605469 53.425781 75.328125 Z M 53.425781 75.328125 "/>
<path style=" stroke:none;fill-rule:nonzero;fill:rgb(0%,12.54902%,16.078432%);fill-opacity:1;" d="M 43.984375 74.113281 C 43.984375 74.722656 43.984375 74.722656 43.828125 75.046875 C 43.761719 75.152344 43.695312 75.257812 43.625 75.367188 C 43.558594 75.476562 43.492188 75.582031 43.421875 75.695312 C 43.371094 75.773438 43.320312 75.855469 43.265625 75.9375 C 43.1875 75.871094 43.109375 75.804688 43.027344 75.734375 C 43.34375 75.199219 43.660156 74.664062 43.984375 74.113281 Z M 43.984375 74.113281 "/>
<path style=" stroke:none;fill-rule:nonzero;fill:rgb(10.588235%,21.176471%,24.313726%);fill-opacity:1;" d="M 45.058594 60.304688 C 45.410156 60.558594 45.410156 60.558594 45.777344 60.914062 C 45.882812 61.359375 45.882812 61.359375 45.894531 61.726562 C 45.554688 61.464844 45.300781 61.203125 45.058594 60.710938 C 45.058594 60.578125 45.058594 60.441406 45.058594 60.304688 Z M 45.058594 60.304688 "/>
<path style=" stroke:none;fill-rule:nonzero;fill:rgb(10.196079%,20.784314%,23.529412%);fill-opacity:1;" d="M 48.882812 42.640625 C 49.003906 42.707031 49.121094 42.773438 49.242188 42.84375 C 49.164062 43.246094 49.085938 43.648438 49.003906 44.0625 C 48.925781 44.0625 48.847656 44.0625 48.765625 44.0625 C 48.804688 43.726562 48.84375 43.390625 48.882812 43.046875 C 48.804688 42.980469 48.726562 42.910156 48.644531 42.84375 C 48.722656 42.777344 48.804688 42.707031 48.882812 42.640625 Z M 48.882812 42.640625 "/>
<path style=" stroke:none;fill-rule:nonzero;fill:rgb(0%,12.54902%,16.078432%);fill-opacity:1;" d="M 78.644531 79.390625 C 78.683594 79.390625 78.722656 79.390625 78.765625 79.390625 C 78.804688 80.261719 78.84375 81.132812 78.882812 82.03125 C 78.804688 82.03125 78.726562 82.03125 78.644531 82.03125 C 78.644531 81.160156 78.644531 80.289062 78.644531 79.390625 Z M 78.644531 79.390625 "/>
<path style=" stroke:none;fill-rule:nonzero;fill:rgb(0%,12.54902%,16.078432%);fill-opacity:1;" d="M 66.574219 77.765625 C 66.824219 78.613281 66.832031 78.742188 66.691406 79.59375 C 66.652344 79.59375 66.613281 79.59375 66.574219 79.59375 C 66.574219 78.992188 66.574219 78.386719 66.574219 77.765625 Z M 66.574219 77.765625 "/>
<path style=" stroke:none;fill-rule:nonzero;fill:rgb(0%,12.54902%,16.078432%);fill-opacity:1;" d="M 50.199219 86.089844 C 50.4375 86.292969 50.4375 86.292969 50.675781 86.496094 C 50.675781 86.699219 50.675781 86.898438 50.675781 87.105469 C 50.519531 86.773438 50.363281 86.4375 50.199219 86.089844 Z M 50.199219 86.089844 "/>
<path style=" stroke:none;fill-rule:nonzero;fill:rgb(0%,12.54902%,16.078432%);fill-opacity:1;" d="M 51.992188 73.707031 C 52.03125 73.90625 52.070312 74.109375 52.113281 74.316406 C 51.992188 74.414062 51.992188 74.414062 51.871094 74.519531 C 51.792969 74.382812 51.714844 74.25 51.632812 74.113281 C 51.75 73.976562 51.871094 73.84375 51.992188 73.707031 Z M 51.992188 73.707031 "/>
<path style=" stroke:none;fill-rule:nonzero;fill:rgb(0%,12.54902%,16.078432%);fill-opacity:1;" d="M 64.0625 86.699219 C 64.183594 86.800781 64.183594 86.800781 64.304688 86.902344 C 64.261719 87.105469 64.222656 87.304688 64.183594 87.511719 C 64.144531 87.246094 64.105469 86.976562 64.0625 86.699219 Z M 64.0625 86.699219 "/>
<path style=" stroke:none;fill-rule:nonzero;fill:rgb(0%,12.54902%,16.078432%);fill-opacity:1;" d="M 55.21875 86.292969 C 55.335938 86.363281 55.457031 86.429688 55.578125 86.496094 C 55.5 86.632812 55.417969 86.765625 55.339844 86.902344 C 55.300781 86.703125 55.257812 86.5 55.21875 86.292969 Z M 55.21875 86.292969 "/>
<path style=" stroke:none;fill-rule:nonzero;fill:rgb(0%,12.54902%,16.078432%);fill-opacity:1;" d="M 49.839844 80 C 49.917969 80.132812 50 80.269531 50.078125 80.40625 C 49.960938 80.707031 49.960938 80.707031 49.839844 81.015625 C 49.839844 80.679688 49.839844 80.34375 49.839844 80 Z M 49.839844 80 "/>
<path style=" stroke:none;fill-rule:nonzero;fill:rgb(0%,12.54902%,16.078432%);fill-opacity:1;" d="M 50.675781 89.542969 C 50.675781 89.746094 50.675781 89.945312 50.675781 90.152344 C 50.597656 90.085938 50.519531 90.019531 50.4375 89.949219 C 50.515625 89.816406 50.597656 89.679688 50.675781 89.542969 Z M 50.675781 89.542969 "/>
<path style=" stroke:none;fill-rule:nonzero;fill:rgb(0%,12.54902%,16.078432%);fill-opacity:1;" d="M 47.570312 86.089844 C 47.6875 86.160156 47.804688 86.226562 47.929688 86.292969 C 47.890625 86.429688 47.847656 86.5625 47.808594 86.699219 C 47.730469 86.5 47.652344 86.296875 47.570312 86.089844 Z M 47.570312 86.089844 "/>
<path style=" stroke:none;fill-rule:nonzero;fill:rgb(0%,12.54902%,16.078432%);fill-opacity:1;" d="M 73.386719 81.015625 C 73.386719 81.214844 73.386719 81.417969 73.386719 81.625 C 73.308594 81.558594 73.230469 81.492188 73.148438 81.421875 C 73.226562 81.289062 73.304688 81.152344 73.386719 81.015625 Z M 73.386719 81.015625 "/>
<path style=" stroke:none;fill-rule:nonzero;fill:rgb(0%,12.54902%,16.078432%);fill-opacity:1;" d="M 70.519531 81.015625 C 70.519531 81.214844 70.519531 81.417969 70.519531 81.625 C 70.4375 81.558594 70.359375 81.492188 70.277344 81.421875 C 70.359375 81.289062 70.4375 81.152344 70.519531 81.015625 Z M 70.519531 81.015625 "/>
<path style=" stroke:none;fill-rule:nonzero;fill:rgb(0%,12.54902%,16.078432%);fill-opacity:1;" d="M 73.625 76.140625 C 73.625 76.34375 73.625 76.542969 73.625 76.75 C 73.546875 76.683594 73.46875 76.617188 73.386719 76.546875 C 73.464844 76.414062 73.542969 76.28125 73.625 76.140625 Z M 73.625 76.140625 "/>
<path style=" stroke:none;fill-rule:nonzero;fill:rgb(0%,12.54902%,16.078432%);fill-opacity:1;" d="M 64.78125 74.316406 C 64.898438 74.382812 65.015625 74.449219 65.140625 74.519531 C 65.101562 74.652344 65.0625 74.785156 65.019531 74.925781 C 64.941406 74.722656 64.863281 74.523438 64.78125 74.316406 Z M 64.78125 74.316406 "/>
<path style=" stroke:none;fill-rule:nonzero;fill:rgb(0%,12.54902%,16.078432%);fill-opacity:1;" d="M 66.691406 71.878906 C 66.8125 71.945312 66.929688 72.011719 67.050781 72.082031 C 67.011719 72.214844 66.972656 72.347656 66.933594 72.488281 C 66.851562 72.285156 66.773438 72.085938 66.691406 71.878906 Z M 66.691406 71.878906 "/>
<path style=" stroke:none;fill-rule:nonzero;fill:rgb(0%,12.54902%,16.078432%);fill-opacity:1;" d="M 44.222656 71.472656 C 44.339844 71.539062 44.460938 71.605469 44.582031 71.675781 C 44.542969 71.808594 44.503906 71.941406 44.460938 72.082031 C 44.382812 71.878906 44.304688 71.679688 44.222656 71.472656 Z M 44.222656 71.472656 "/>
<path style=" stroke:none;fill-rule:nonzero;fill:rgb(0%,12.54902%,16.078432%);fill-opacity:1;" d="M 66.933594 66.394531 C 66.933594 66.597656 66.933594 66.796875 66.933594 67.003906 C 66.851562 66.9375 66.773438 66.871094 66.691406 66.800781 C 66.773438 66.667969 66.851562 66.535156 66.933594 66.394531 Z M 66.933594 66.394531 "/>
<path style=" stroke:none;fill-rule:nonzero;fill:rgb(0%,12.54902%,16.078432%);fill-opacity:1;" d="M 54.980469 42.84375 C 54.980469 43.042969 54.980469 43.246094 54.980469 43.453125 C 54.902344 43.386719 54.824219 43.316406 54.742188 43.25 C 54.820312 43.113281 54.898438 42.980469 54.980469 42.84375 Z M 54.980469 42.84375 "/>
<path style=" stroke:none;fill-rule:nonzero;fill:rgb(0%,12.54902%,16.078432%);fill-opacity:1;" d="M 66.691406 34.925781 C 66.8125 34.992188 66.929688 35.058594 67.050781 35.125 C 67.011719 35.261719 66.972656 35.394531 66.933594 35.53125 C 66.851562 35.332031 66.773438 35.132812 66.691406 34.925781 Z M 66.691406 34.925781 "/>
<path style=" stroke:none;fill-rule:nonzero;fill:rgb(0%,12.54902%,16.078432%);fill-opacity:1;" d="M 46.136719 76.140625 C 46.253906 76.210938 46.371094 76.277344 46.492188 76.34375 C 46.375 76.34375 46.257812 76.34375 46.136719 76.34375 C 46.136719 76.277344 46.136719 76.210938 46.136719 76.140625 Z M 46.136719 76.140625 "/>
<path style=" stroke:none;fill-rule:nonzero;fill:rgb(0%,12.54902%,16.078432%);fill-opacity:1;" d="M 66.574219 87.917969 C 66.652344 87.917969 66.730469 87.917969 66.8125 87.917969 C 66.773438 88.054688 66.734375 88.1875 66.691406 88.324219 C 66.652344 88.191406 66.613281 88.058594 66.574219 87.917969 Z M 66.574219 87.917969 "/>
<path style=" stroke:none;fill-rule:nonzero;fill:rgb(0%,12.54902%,16.078432%);fill-opacity:1;" d="M 61.554688 86.699219 C 61.632812 86.699219 61.710938 86.699219 61.792969 86.699219 C 61.753906 86.835938 61.714844 86.96875 61.671875 87.105469 C 61.632812 86.972656 61.59375 86.839844 61.554688 86.699219 Z M 61.554688 86.699219 "/>
<path style=" stroke:none;fill-rule:nonzero;fill:rgb(0%,12.54902%,16.078432%);fill-opacity:1;" d="M 58.683594 86.089844 C 58.765625 86.089844 58.84375 86.089844 58.925781 86.089844 C 58.886719 86.226562 58.84375 86.359375 58.804688 86.496094 C 58.765625 86.363281 58.726562 86.230469 58.683594 86.089844 Z M 58.683594 86.089844 "/>
<path style=" stroke:none;fill-rule:nonzero;fill:rgb(0%,12.54902%,16.078432%);fill-opacity:1;" d="M 78.882812 82.03125 C 78.964844 82.164062 79.042969 82.296875 79.125 82.4375 C 79.042969 82.4375 78.964844 82.4375 78.882812 82.4375 C 78.882812 82.300781 78.882812 82.167969 78.882812 82.03125 Z M 78.882812 82.03125 "/>
<path style=" stroke:none;fill-rule:nonzero;fill:rgb(0%,12.54902%,16.078432%);fill-opacity:1;" d="M 46.375 79.390625 C 46.734375 79.59375 46.734375 79.59375 46.734375 79.59375 Z M 46.375 79.390625 "/>
<path style=" stroke:none;fill-rule:nonzero;fill:rgb(0%,12.54902%,16.078432%);fill-opacity:1;" d="M 46.734375 79.1875 C 47.089844 79.390625 47.089844 79.390625 47.089844 79.390625 Z M 46.734375 79.1875 "/>
<path style=" stroke:none;fill-rule:nonzero;fill:rgb(0%,12.54902%,16.078432%);fill-opacity:1;" d="M 43.984375 78.984375 C 44.0625 78.984375 44.140625 78.984375 44.222656 78.984375 C 44.183594 79.117188 44.144531 79.253906 44.105469 79.390625 C 44.0625 79.257812 44.023438 79.121094 43.984375 78.984375 Z M 43.984375 78.984375 "/>
<path style=" stroke:none;fill-rule:nonzero;fill:rgb(0%,12.54902%,16.078432%);fill-opacity:1;" d="M 47.929688 77.96875 C 47.96875 78.105469 48.007812 78.238281 48.046875 78.375 C 47.96875 78.308594 47.890625 78.242188 47.808594 78.171875 C 47.847656 78.105469 47.886719 78.039062 47.929688 77.96875 Z M 47.929688 77.96875 "/>
<path style=" stroke:none;fill-rule:nonzero;fill:rgb(0%,12.54902%,16.078432%);fill-opacity:1;" d="M 57.25 56.445312 C 57.371094 56.546875 57.371094 56.546875 57.488281 56.648438 C 57.371094 56.75 57.371094 56.75 57.25 56.851562 C 57.25 56.71875 57.25 56.585938 57.25 56.445312 Z M 57.25 56.445312 "/>
<path style=" stroke:none;fill-rule:nonzero;fill:rgb(0%,12.54902%,16.078432%);fill-opacity:1;" d="M 54.621094 43.453125 C 54.660156 43.585938 54.699219 43.71875 54.742188 43.859375 C 54.664062 43.789062 54.582031 43.722656 54.503906 43.65625 C 54.542969 43.585938 54.582031 43.519531 54.621094 43.453125 Z M 54.621094 43.453125 "/>
<path style=" stroke:none;fill-rule:nonzero;fill:rgb(0%,12.54902%,16.078432%);fill-opacity:1;" d="M 66.933594 43.046875 C 66.972656 43.179688 67.011719 43.3125 67.050781 43.453125 C 66.972656 43.386719 66.894531 43.316406 66.8125 43.25 C 66.851562 43.183594 66.890625 43.113281 66.933594 43.046875 Z M 66.933594 43.046875 "/>
<path style=" stroke:none;fill-rule:nonzero;fill:rgb(0%,12.54902%,16.078432%);fill-opacity:1;" d="M 64.78125 89.542969 C 65.019531 89.746094 65.019531 89.746094 65.019531 89.746094 Z M 64.78125 89.542969 "/>
<path style=" stroke:none;fill-rule:nonzero;fill:rgb(0%,12.54902%,16.078432%);fill-opacity:1;" d="M 71.832031 79.390625 C 72.070312 79.59375 72.070312 79.59375 72.070312 79.59375 Z M 71.832031 79.390625 "/>
<path style=" stroke:none;fill-rule:nonzero;fill:rgb(0%,12.54902%,16.078432%);fill-opacity:1;" d="M 54.980469 74.113281 C 55.21875 74.316406 55.21875 74.316406 55.21875 74.316406 Z M 54.980469 74.113281 "/>
<path style=" stroke:none;fill-rule:nonzero;fill:rgb(0%,12.54902%,16.078432%);fill-opacity:1;" d="M 42.191406 73.503906 C 42.429688 73.707031 42.429688 73.707031 42.429688 73.707031 Z M 42.191406 73.503906 "/>
</g>
</svg>
